<?xml version="1.0" encoding="utf-8"?><svg xmlns="http://www.w3.org/2000/svg" xmlns:xlink="http://www.w3.org/1999/xlink"><symbol viewBox="0 0 512.001 512.001" id="advantages-item1"><path d="M466.395 88.411C395.95 69.109 325.091 39.054 261.478 1.496a10.765 10.765 0 0 0-10.95 0C185.08 40.133 118.05 68.562 45.605 88.411a10.769 10.769 0 0 0-7.924 10.388v110.046c0 113.323 52.279 188.335 96.137 231.306 47.216 46.265 102.216 71.85 122.185 71.85 19.967 0 74.967-25.585 122.183-71.85 43.857-42.97 96.133-117.982 96.133-231.306V98.798c0-4.852-3.244-9.106-7.924-10.387zm-13.616 120.433c0 105.843-48.761 175.838-89.669 215.92-46.431 45.495-96.074 65.695-107.107 65.695-11.033 0-60.679-20.2-107.111-65.695-40.907-40.083-89.67-110.077-89.67-215.92v-101.87C128.5 87.304 193.018 59.853 256.005 23.25c61.414 35.632 129.151 64.448 196.774 83.72v101.874z"/><path d="M160.538 105.769c-2.18-5.535-8.433-8.254-13.969-6.073a876.25 876.25 0 0 1-58.695 20.741 10.771 10.771 0 0 0-7.547 10.276v41.591c0 5.948 4.823 10.77 10.77 10.77s10.77-4.822 10.77-10.77v-33.72a897.813 897.813 0 0 0 52.598-18.848c5.535-2.179 8.254-8.432 6.073-13.967zm20.459 2.043c1.445 0 2.912-.291 4.319-.905l.198-.086c5.449-2.388 7.903-8.731 5.515-14.178-2.39-5.449-8.769-7.914-14.212-5.528l-.174.075c-5.452 2.381-7.914 8.719-5.533 14.169 1.767 4.046 5.732 6.453 9.887 6.453zm203.325 239.471c-4.977-3.253-11.651-1.854-14.908 3.125-8.875 13.584-19.287 26.592-30.951 38.659a275.097 275.097 0 0 1-30.893 27.485c-4.729 3.606-5.639 10.364-2.034 15.095a10.758 10.758 0 0 0 8.572 4.241c2.278 0 4.573-.719 6.523-2.207a296.864 296.864 0 0 0 33.317-29.642c12.611-13.044 23.881-27.124 33.499-41.849 3.255-4.98 1.854-11.654-3.125-14.907zm-101.764 86.16l-.618.364c-5.147 2.981-6.906 9.569-3.926 14.716a10.763 10.763 0 0 0 14.716 3.924l.713-.419c5.133-3.006 6.857-9.603 3.851-14.736-3.008-5.131-9.606-6.852-14.736-3.849zm-99.969-199.424c-6.613-6.614-15.408-10.254-24.762-10.254s-18.15 3.641-24.766 10.254c-13.653 13.656-13.653 35.876 0 49.531l63.596 63.594c6.614 6.612 15.409 10.253 24.764 10.253s18.15-3.641 24.765-10.255L378.947 214.38c13.652-13.659 13.652-35.876-.002-49.527-6.614-6.614-15.409-10.254-24.765-10.254-9.355 0-18.15 3.641-24.765 10.254L221.42 272.848l-38.831-38.829zm162.058-53.934a13.395 13.395 0 0 1 9.534-3.946c3.604 0 6.988 1.401 9.535 3.946 5.255 5.255 5.255 13.809-.002 19.066l-132.759 132.76c-2.545 2.545-5.932 3.946-9.534 3.946s-6.989-1.401-9.535-3.946l-63.594-63.592c-5.257-5.257-5.257-13.811-.002-19.066 2.546-2.545 5.933-3.948 9.536-3.948s6.988 1.401 9.533 3.946l46.445 46.446c2.021 2.019 4.759 3.154 7.616 3.154s5.595-1.134 7.614-3.154l115.613-115.612z"/></symbol><symbol viewBox="0 0 502 502" id="advantages-item2"><path d="M363.05 97.025a189.71 189.71 0 0 1 15.969 13.296 9.964 9.964 0 0 0 6.809 2.679 9.975 9.975 0 0 0 7.324-3.188c3.762-4.043 3.534-10.371-.51-14.133a209.727 209.727 0 0 0-17.661-14.705c-4.433-3.295-10.697-2.374-13.991 2.06-3.295 4.432-2.373 10.696 2.06 13.991zM88.349 215.226c-29.071 0-52.721 23.651-52.721 52.721 0 29.071 23.65 52.722 52.721 52.722s52.721-23.651 52.721-52.722-23.65-52.721-52.721-52.721zm0 85.442c-18.042 0-32.721-14.679-32.721-32.722 0-18.042 14.679-32.721 32.721-32.721s32.721 14.679 32.721 32.721c0 18.044-14.678 32.722-32.721 32.722zM304.018 85.999c0-29.071-23.651-52.721-52.721-52.721-29.071 0-52.722 23.65-52.722 52.721 0 29.071 23.652 52.721 52.722 52.721s52.721-23.65 52.721-52.721zm-85.443 0c0-18.042 14.679-32.721 32.722-32.721 18.042 0 32.721 14.679 32.721 32.721 0 18.042-14.679 32.721-32.721 32.721-18.043 0-32.722-14.679-32.722-32.721z"/><path d="M457.038 276.589A210.48 210.48 0 0 0 459 248c0-45.997-14.711-89.589-42.543-126.065-3.351-4.391-9.626-5.234-14.016-1.884-4.391 3.351-5.234 9.625-1.884 14.016C425.707 167.027 439 206.425 439 248c0 6.782-.369 13.575-1.09 20.303a85.706 85.706 0 0 0-24.259-3.507c-47.42 0-85.999 38.579-85.999 85.999 0 13.751 6.741 33.337 20.076 58.439C318.573 426.765 285.304 436 251 436c-49.67 0-95.989-18.927-131.28-53.443a789.299 789.299 0 0 0 15.081-22.924c26.241-41.51 39.547-72.357 39.547-91.686 0-47.42-38.579-85.999-85.999-85.999-4.709 0-9.325.396-13.831 1.127 16.3-44.196 49.006-81.026 90.971-102.528a86.351 86.351 0 0 0-.191 5.452c0 19.329 13.306 50.176 39.547 91.686 19.021 30.088 37.726 54.572 38.513 55.6a9.998 9.998 0 0 0 15.878-.001c.787-1.027 19.492-25.511 38.513-55.599 26.242-41.51 39.547-72.357 39.547-91.686C337.296 38.579 298.717 0 251.297 0c-36.913 0-68.461 23.381-80.633 56.107C112.775 80.38 68.422 130.189 51.092 190.445 22.277 204.352 2.35 233.866 2.35 267.947c0 19.329 13.306 50.176 39.547 91.686 19.021 30.088 37.726 54.572 38.513 55.6a9.998 9.998 0 0 0 15.878 0c.383-.5 5.004-6.55 11.831-16.081 17.369 16.45 37.224 29.657 59.179 39.319C193.731 450.102 221.893 456 251 456c37.754 0 74.383-10.117 106.53-29.326a606.64 606.64 0 0 0 9.669 15.807c19.021 30.088 37.726 54.572 38.513 55.6a9.998 9.998 0 0 0 15.878 0c.787-1.028 19.492-25.511 38.513-55.6 26.241-41.51 39.547-72.357 39.547-91.686 0-31.602-17.146-59.259-42.612-74.206zM251.297 20c36.392 0 65.999 29.607 65.999 65.999 0 28.12-42.186 91.813-65.999 124.476-23.813-32.663-65.999-96.356-65.999-124.476 0-36.392 29.607-65.999 65.999-65.999zM88.349 392.422C64.536 359.759 22.35 296.066 22.35 267.947c0-36.392 29.607-65.999 65.999-65.999 36.392 0 65.999 29.607 65.999 65.999 0 28.119-42.186 91.812-65.999 124.475zm325.302 82.849c-23.813-32.663-65.999-96.356-65.999-124.476 0-36.392 29.607-65.999 65.999-65.999 36.392 0 65.999 29.607 65.999 65.999 0 28.12-42.186 91.812-65.999 124.476z"/><path d="M413.651 298.074c-29.071 0-52.721 23.65-52.721 52.721 0 29.071 23.65 52.721 52.721 52.721 29.071 0 52.721-23.65 52.721-52.721 0-29.071-23.65-52.721-52.721-52.721zm0 85.442c-18.042 0-32.721-14.679-32.721-32.721 0-18.042 14.679-32.721 32.721-32.721 18.042 0 32.721 14.679 32.721 32.721 0 18.042-14.679 32.721-32.721 32.721z"/></symbol><symbol viewBox="190 -68.4 976.3 976.3" id="advantages-item3"><path d="M465.6 562.1h589.5L1166.3 116h-801L334.4-5.2H190v41.9h112.2l128.3 501.8-23.5 47.1c-12.6 25.8-11.3 55.4 3.9 79.6 9.7 15.1 23.5 26.4 39.6 32.9-11.6 15.5-18.7 34.5-18.7 55.1 0 50.6 40.9 91.5 91.5 91.5s91.5-40.9 91.5-91.5c0-18.4-5.5-35.5-14.5-49.6h209.2c-9.3 14.2-14.5 31.3-14.5 49.6 0 50.6 40.9 91.5 91.5 91.5s91.5-40.9 91.5-91.5c0-18.4-5.5-35.5-14.5-49.6h67v-41.9H480.1c-13.9 0-26.1-6.8-33.5-18.7-7.4-11.6-8.1-26.1-1.9-38.7l20.9-42.2zm420.6 141.5c27.4 0 49.6 22.2 49.6 49.6s-22.2 49.6-49.6 49.6-49.6-22.2-49.6-49.6c-.1-27.4 22.2-49.6 49.6-49.6zm-362.9 0c27.4 0 49.6 22.2 49.6 49.6s-22.2 49.6-49.6 49.6c-27.4 0-49.6-22.2-49.6-49.6-.1-27.4 22.2-49.6 49.6-49.6zm-147-545.7h736.5l-90.6 362.3H468.8l-92.5-362.3z"/><path d="M599.8 436.3h-39.7V272.5h-41v-30.4l80.7-7.1v201.3zm70.6-87.5l11.5-111h110.7v31.9h-78.1l-5.5 46.4c3.7-2.7 8.4-5 14-6.7 5.6-1.8 11.8-2.7 18.4-2.9 18.4-.3 32.7 5.4 42.9 17.1 10.1 11.7 15.2 28.1 15.2 49.1 0 19.4-5.5 35.4-16.5 47.9s-27.8 18.7-50.4 18.7c-18.3 0-33.9-4.8-46.9-14.5s-19.3-23-18.8-39.9l.3-.7 38.3-1.8c0 8.3 2.5 14.7 7.5 19.4 5 4.6 11.5 7 19.6 7 9.5 0 16.3-3.1 20.7-9.3 4.3-6.2 6.5-15 6.5-26.4 0-11.5-2.4-20.6-7.1-27.3-4.7-6.8-11.7-10.2-21-10.2-7.6 0-13.5 1.4-17.5 4.2-4 2.8-6.9 6.6-8.7 11.5l-35.1-2.5zm288.5 15.7c0 23.3-6.1 41.5-18.3 54.8-12.2 13.3-28.4 19.9-48.6 19.9-20.4 0-36.7-6.6-48.9-19.9-12.3-13.3-18.4-31.5-18.4-54.8v-54.7c0-23.2 6.1-41.4 18.3-54.8 12.2-13.4 28.5-20 48.7-20 20.2 0 36.4 6.7 48.7 20 12.3 13.4 18.5 31.6 18.5 54.8v54.7zm-39.7-58.8c0-12.7-2.4-22.6-7.3-29.6s-11.6-10.5-20.2-10.5c-8.7 0-15.5 3.5-20.2 10.5-4.8 7-7.2 16.9-7.2 29.6v62.6c0 13 2.4 23 7.2 29.9 4.8 7 11.6 10.4 20.4 10.4 8.6 0 15.3-3.5 20.1-10.4s7.2-16.9 7.2-29.9v-62.6z"/></symbol><symbol viewBox="0 0 512 512" id="advantages-item4"><path d="M493.137 59.284c10.401 0 18.863-8.463 18.863-18.863V18.863C512 8.463 503.537 0 493.137 0H374.568c-10.401 0-18.863 8.463-18.863 18.863v21.558c0 10.401 8.463 18.863 18.863 18.863h2.695v48.505h-7.211c-3.032-6.368-9.532-10.779-17.042-10.779h-21.558c-10.401 0-18.863 8.463-18.863 18.863v2.695h-13.474c-10.401 0-18.863 8.463-18.863 18.863v10.779c0 10.401 8.463 18.863 18.863 18.863h13.474v16.168h-48.505v-13.474c0-16.345-13.297-29.642-29.642-29.642h-204.8C13.297 140.126 0 153.423 0 169.768v172.463c0 16.345 13.297 29.642 29.642 29.642h204.8c16.345 0 29.642-13.297 29.642-29.642v-13.474h48.505v16.168h-13.474c-10.401 0-18.863 8.463-18.863 18.863v10.779c0 10.401 8.463 18.863 18.863 18.863h13.474v2.695c0 10.401 8.463 18.863 18.863 18.863h21.558c7.51 0 14.009-4.411 17.042-10.779h7.211v48.505h-2.695c-10.401 0-18.863 8.463-18.863 18.863v21.558c0 10.401 8.463 18.863 18.863 18.863h118.568c10.401 0 18.863-8.463 18.863-18.863v-21.558c0-10.401-8.463-18.863-18.863-18.863h-2.695v-48.505h2.695c10.401 0 18.863-8.463 18.863-18.863V126.653c0-10.401-8.463-18.863-18.863-18.863h-2.695V59.284h2.696zM247.916 342.232c0 7.43-6.044 13.474-13.474 13.474H59.284v-26.947h188.632v13.473zm0-29.643H59.284v-26.947h188.632v26.947zm0-43.115H59.284v-26.947h188.632v26.947zm0-43.116H59.284v-2.695a8.084 8.084 0 0 0-16.168 0v132.042H29.642c-7.43 0-13.474-6.044-13.474-13.474V169.768c0-7.43 6.044-13.474 13.474-13.474h13.474v35.032a8.084 8.084 0 0 0 8.084 8.084h196.716v26.948zm0-43.116H59.284v-26.947h175.158c7.43 0 13.474 6.044 13.474 13.474v13.473zm64.673 194.021h-13.474a2.699 2.699 0 0 1-2.695-2.695v-10.779a2.699 2.699 0 0 1 2.695-2.695h13.474v16.169zm0-64.674h-48.505V199.411h48.505v113.178zm0-161.684h-13.474a2.699 2.699 0 0 1-2.695-2.695v-10.779a2.699 2.699 0 0 1 2.695-2.695h13.474v16.169zm180.548 317.979a2.699 2.699 0 0 1 2.695 2.695v21.558a2.699 2.699 0 0 1-2.695 2.695H374.568a2.699 2.699 0 0 1-2.695-2.695v-21.558a2.699 2.699 0 0 1 2.695-2.695h32.337a8.084 8.084 0 0 0 0-16.168h-13.474v-48.505h80.842v48.505h-35.032a8.084 8.084 0 0 0 0 16.168h53.896zm0-344.926a2.699 2.699 0 0 1 2.695 2.695v258.695a2.699 2.699 0 0 1-2.695 2.695H371.874V202.105a8.084 8.084 0 0 0-16.168 0v194.021a2.699 2.699 0 0 1-2.695 2.695h-21.558a2.699 2.699 0 0 1-2.695-2.695V115.874a2.699 2.699 0 0 1 2.695-2.695h21.558a2.699 2.699 0 0 1 2.695 2.695v53.895a8.084 8.084 0 0 0 16.168 0v-45.811h121.263zm-53.895-64.674h35.032v48.505h-80.842V59.284h13.474a8.084 8.084 0 0 0 0-16.168h-32.337a2.699 2.699 0 0 1-2.695-2.695V18.863a2.699 2.699 0 0 1 2.695-2.695h118.568a2.699 2.699 0 0 1 2.695 2.695v21.558a2.699 2.699 0 0 1-2.695 2.695h-53.895a8.084 8.084 0 0 0 0 16.168z"/></symbol><symbol viewBox="0 0 139.4 44.7" id="dorohovdesign"><path d="M52.2 19.5V8.1H57c3.6 0 6.1 2.1 6.1 5.7 0 3.5-2.6 5.7-6.1 5.7h-4.8zm7.9-5.7c0-1.8-1.1-3.1-3.1-3.1h-1.9v6.2H57c2 0 3.1-1.4 3.1-3.1m4.1 0c0-3.4 2.6-5.9 6.1-5.9 3.5 0 6.1 2.4 6.1 5.9 0 3.5-2.6 5.9-6.1 5.9-3.5 0-6.1-2.4-6.1-5.9m9.2 0c0-1.9-1.2-3.3-3.1-3.3-1.9 0-3.1 1.4-3.1 3.3 0 1.8 1.2 3.3 3.1 3.3 1.9 0 3.1-1.4 3.1-3.3m11 5.7l-1.9-3.8H81v3.8h-2.9V8.1h5.7c2.5 0 3.9 1.7 3.9 3.8 0 2-1.2 3-2.3 3.4l2.3 4.2h-3.3zm.3-7.6c0-.8-.6-1.2-1.4-1.2H81v2.4h2.3c.8 0 1.4-.4 1.4-1.2m4.2 1.9c0-3.4 2.6-5.9 6.1-5.9 3.5 0 6.1 2.4 6.1 5.9 0 3.5-2.6 5.9-6.1 5.9-3.5 0-6.1-2.4-6.1-5.9m9.1 0c0-1.9-1.2-3.3-3.1-3.3-1.9 0-3.1 1.4-3.1 3.3 0 1.8 1.2 3.3 3.1 3.3 1.9 0 3.1-1.4 3.1-3.3m12.4 5.7v-4.6h-4.7v4.6h-3V8.1h3v4.3h4.7V8.1h2.9v11.4zm4.6-5.7c0-3.4 2.6-5.9 6.1-5.9 3.5 0 6.1 2.4 6.1 5.9 0 3.5-2.6 5.9-6.1 5.9-3.5 0-6.1-2.4-6.1-5.9m9.2 0c0-1.9-1.2-3.3-3.1-3.3-1.9 0-3.1 1.4-3.1 3.3 0 1.8 1.2 3.3 3.1 3.3 1.9 0 3.1-1.4 3.1-3.3m7.3 5.7l-4.3-11.4h3.3l2.8 8.2 2.8-8.2h3.3l-4.2 11.4zm-79.3 17V25.1H57c3.6 0 6.1 2.1 6.1 5.7 0 3.5-2.6 5.7-6.1 5.7h-4.8zm7.9-5.7c0-1.8-1.1-3.1-3.1-3.1h-1.9v6.2H57c2 0 3.1-1.4 3.1-3.1m4.7 5.7V25.1h8.3v2.6h-5.3v1.8H73V32h-5.2v1.9h5.3v2.6zm9.6-1.6l1.5-2.2c.8.8 2.1 1.5 3.6 1.5 1 0 1.6-.4 1.6-.9 0-1.5-6.4-.3-6.4-4.7 0-1.9 1.6-3.6 4.5-3.6 1.8 0 3.4.5 4.6 1.6l-1.6 2.1c-1-.8-2.2-1.2-3.3-1.2-.8 0-1.2.3-1.2.8 0 1.4 6.4.4 6.4 4.6 0 2.3-1.7 3.8-4.7 3.8-2.2 0-3.8-.7-5-1.8m11.5-9.8h2.9v11.3h-2.9zm4.7 5.7c0-3.6 2.8-5.9 6.1-5.9 2.5 0 4.1 1.3 4.8 2.8L99.1 29c-.4-.7-1.3-1.4-2.4-1.4-1.9 0-3.2 1.4-3.2 3.3s1.3 3.3 3.2 3.3c.8 0 1.7-.3 2.1-.7v-.9h-2.6V30h5.5v4.5c-1.2 1.3-2.9 2.2-5 2.2-3.4 0-6.1-2.3-6.1-5.9m20.9 5.7l-4.8-6.6v6.6h-2.9V25.1h3l4.6 6.3v-6.3h2.9v11.4zM17.7 0H0v44.7h17.8c15 0 24.6-8.8 24.6-22.4C42.4 8.7 32.7 0 17.7 0m-.4 35.7h-8V9.5h8c9.3 0 15.7 3.7 15.7 12.7.1 7.5-5.8 13.5-15.7 13.5"/><path d="M19.1 17H17v10.6h2c4 0 6.4-2.4 6.4-5.4 0-3.7-2.6-5.2-6.3-5.2"/></symbol><symbol viewBox="0 0 490 490" id="download"><path d="M364.1 251.3c-7-7-18.4-7-25.5 0L263 327.1V130.9c0-9.9-8.1-18-18-18s-18 8.1-18 18v196.2l-75.8-75.8c-7-7-18.4-7-25.5 0-7 7-7 18.4 0 25.5l106.5 106.5c3.5 3.5 8.1 5.3 12.7 5.3s9.2-1.8 12.7-5.3l106.5-106.5c7-7 7-18.4 0-25.5zM245 0c-9.9 0-18 8.1-18 18v41.2c0 9.9 8.1 18 18 18s18-8.1 18-18V18c0-9.9-8.1-18-18-18z"/><path d="M438.2 334.9c-9.9 0-18 8.1-18 18V454H69.8V352.9c0-9.9-8.1-18-18-18s-18 8.1-18 18V472c0 9.9 8.1 18 18 18h386.3c10 0 18.1-8.1 18.1-18V352.9c0-9.9-8.1-18-18-18z"/></symbol><symbol viewBox="0 0 124.099 124.1" id="email"><path d="M18.25 106.7c5.6 5.399 12.3 9.8 20.1 12.8 7.8 3 16.5 4.6 25.9 4.6 10.5 0 20.2-1.6 28.9-4.899 7.9-2.9 1.1-17.601-4.7-15.2-6.399 2.7-14.2 4.1-23.101 4.1-7 0-13.399-1.1-19-3.199-5.6-2.101-10.5-5.101-14.5-9-4-3.9-7.2-8.7-9.4-14.2-2.3-5.601-3.4-12-3.4-19 0-6.6 1.1-12.9 3.3-18.5 2.2-5.6 5.2-10.6 9.2-14.6 3.9-4.1 8.7-7.4 14.2-9.7 5.5-2.3 11.7-3.5 18.5-3.5 6.301 0 12.1.9 17.301 2.5 5.1 1.6 9.5 4.1 13.199 7.4 3.7 3.3 6.6 7.3 8.7 12.1 2.101 4.8 3.101 10.4 3.101 16.8 0 3.7-.4 7.2-1.201 10.5-.799 3.1-1.799 5.899-3.199 8.1-1.301 2.101-2.801 3.8-4.6 5-2.101 1.4-5.201 2.2-7.601 1.4-3-1-2.399-5.2-2.2-7.7.301-3.4 1.2-6.6 1.9-9.9 1.1-5.4 2.3-10.7 3.4-16 .6-2.9 1.299-5.9 1.899-8.8.8-3.7-2-7.3-5.899-7.3h-4.4c-2.7 0-5.1 1.8-5.801 4.4-.299 1.2-.6 2.2-.6 2.2-2.199-6.8-10.3-8.7-16.7-8.6-8.4.1-16.1 4.4-21.7 10.5-.5.6-1.1 1.2-1.6 1.8-2.9 3.5-5.1 7.6-6.6 11.9-1.6 4.6-2.4 9.3-2.4 14.1 0 4.101.6 8 1.7 11.5 1.2 3.601 2.9 6.7 5.1 9.3 2.2 2.601 5 4.7 8.3 6.2 3.3 1.5 7 2.3 11 2.3 3 0 5.8-.5 8.3-1.399 2.4-.9 4.6-2 6.5-3.3 1.5-1 2.9-2.2 4-3.301.699 1.301 1.5 2.4 2.6 3.5 2.801 3 7.1 4.5 12.801 4.5 4.5 0 8.899-.899 13-2.699 4.1-1.801 7.799-4.601 10.899-8.2 3-3.601 5.5-8 7.3-13.2 1.801-5.2 2.7-11.2 2.7-17.8 0-9-1.7-17-5-23.7s-7.8-12.4-13.399-16.9c-5.5-4.5-11.9-7.8-19-10.1C79.05 1.1 71.75 0 64.25 0c-8.7 0-17 1.6-24.7 4.7-7.7 3.2-14.5 7.6-20.2 13.1-5.8 5.5-10.4 12.2-13.7 19.7-3.3 7.5-5 15.9-5 24.7 0 8.899 1.5 17.3 4.6 24.8 3 7.6 7.4 14.2 13 19.7zm54.099-42c-.699 2.7-1.699 5.3-3.1 7.7-1.4 2.3-3.1 4.199-5.3 5.699-2 1.4-4.4 2.101-7.4 2.101-1.9 0-3.4-.4-4.5-1.101-1.2-.8-2.2-1.8-2.9-3.1-.8-1.4-1.3-2.9-1.6-4.4-.3-1.6-.5-3.1-.5-4.399 0-2.8.4-5.6 1.2-8.5.8-2.8 1.9-5.4 3.4-7.6 1.5-2.2 3.2-4 5.3-5.4 1.9-1.3 4-1.9 6.5-1.9 2 0 3.601.3 4.8 1 1.2.7 2.2 1.6 2.9 2.7.8 1.2 1.3 2.6 1.699 4.1.4 1.7.601 3.5.601 5.2-.1 2.5-.399 5.1-1.1 7.9z"/></symbol><symbol viewBox="0 0 510.2 446.2" id="logotip"><path fill-rule="evenodd" clip-rule="evenodd" fill="#91C13D" d="M360.4 245.5c-16.7-1.9-28.8-1.4-37.7 1-6 1.6-5.7 2.1-.3-1.8 47.1-34.8 94.9-54.1 144.2-42.7 10.7 2.5 16 4.5 24.7 11.4 6.6 5.2 12.4 11.8 17.1 21.2 3.3 6.8 1.9 4.4-1.7.5-9.4-10.2-19.1-17.5-29.2-20.8-7.2-2.4-10.5-3.8-3.5 1.8 6.3 5 11.9 11.2 16.4 19.4 3.7 6.8.8 2.9-2.6-.1-11.1-10.1-21.6-17.3-31.4-21.3-6.8-2.8-11.9-5.7-3.9.6 4.8 3.8 10.2 9.8 16.8 19.8 3.5 5.3 4.5 5.9-1 1.7-9.6-7.5-20.8-15.4-31-19.4-7.2-2.8-9.8-4.2-2.8 1.4 6.2 4.9 13.3 12 18.9 19.7 5.2 7 2.3 3.6-1.8.3-10.6-8.5-21.6-13.5-31.4-16.5-7.8-2.4-8.7-3.2-2.2 2 6.8 5.5 12.6 11.2 17 17 3.8 5 2.5 3.5-1.4.9-11.4-7.7-22.4-12.2-32.9-14.4-10.6-2.2-10.9-2.6-2.6 2.8 5.5 3.6 10.7 8.1 15.6 14.4 3.7 4.8 2.4 3.3-1.7 1.1-11.6-6.5-21.4-9.7-30-10.9-11.8-1.6-10.5-1.3-1.4 2.3 4.6 1.8 8.4 4 11 6.6 4.8 5-.4 2.2-3.7 1.2-10.6-3.2-18.9-4.6-26.2-5.1-5.2-.3-13.2-1.3-3.5 1 5.3 1.3 9 2.8 11.6 4.6 6.3 4-5.9.7-9.4.3zm-128.1-2.3c19.4-1.8 32.7-.7 43 1.8 7.5 1.9 10.5 4.4 2.3-2.3-46.3-38.2-94.1-60.3-144.8-50.6-11 2.1-16.5 3.9-25.7 10.8-6.9 5.2-13.3 11.8-18.4 21.4-3.7 6.9-2.2 4.5 1.7.6 10.1-10.2 20.3-17.4 30.8-20.5 7.5-2.2 10.9-3.5 3.5 2-6.7 4.9-12.7 11.2-17.7 19.6-4.1 7-1 3 2.6 0 11.9-10 22.9-17.1 33.1-20.8 7-2.6 12.4-5.5 4 .8-5.1 3.8-10.9 9.8-18 19.9-3.8 5.4-4.8 6 .9 1.8 10.2-7.4 21.9-15.2 32.6-18.9 7.5-2.6 10.2-4 2.8 1.6-6.6 4.8-14.1 11.9-20.3 19.8-5.6 7.1-2.5 3.7 1.9.4 11.2-8.5 22.7-13.1 32.9-15.8 8.1-2.2 9-3 2.2 2.2-7.2 5.5-13.4 11.1-18.2 17.1-4.1 5.1-2.7 3.6 1.4 1 12.1-7.6 23.5-11.8 34.4-13.5 10.9-1.8 11.3-2.3 2.6 3-5.7 3.5-11.3 8-16.6 14.3-4 4.9-2.6 3.4 1.6 1.2 12.2-6.3 22.3-9.2 31.2-10 12.1-1.1 10.8-.9 1.3 2.4-3.2 1.1-6 2.4-8.4 3.9-11.5 7.4-2.2 4.5 3.6 3.1 9.5-2.3 17.2-3.2 24-3.4 5.3-.1 13.6-.8 3.5 1.2-4.2.8-7.5 1.9-10 3.1-6.1 2.9-5.9 3.4.2 2.8zm16.1-35.4c12 5.5 24.1 12.4 36.1 22.6 6.5 5.5 8.4 9.8 4.8-.6-11.4-32.7-26.5-58.9-45-79.2-9.1-10-18.6-18.6-29.8-24.7-11.9-6.5-26.3-10.7-39.9-8.9-6.7.9-12.8 3-18.6 5.8-11.5 5.6-11.7 5.2-.3 3.1 10.3-1.9 21.9-2.3 32.8-.2 14.3 2.9 9.1 2.5-.6 3.5-8.5.9-16.6 2.8-22.6 6.6-6.3 4-5.2 3.8.7 2.7 9.8-1.7 19.7-2.7 30-1.9 18.6 1.4 9 .8 0 2.8-5.3 1.2-10 3.2-14.3 5.9-9.8 6-5.5 4.3 2.2 3.1 7.7-1.2 15.4-2 23.5-1.1 15.5 1.6 12 1.4 1.2 3.7-5.9 1.2-11 3.3-15.2 6.1-7.9 5.2-4 3.7 2.1 3.1 9-1 17.9-1.2 26.4.6 12.8 2.7 9.6 2.6 0 3.3-8.6.7-14.1 2.4-17.6 4.7-5.6 3.6-2.1 2.8 1.9 2.9 9.2.1 18.5.6 27.9 3 14.3 3.8 11.8 3.2.3 3.8-5.6.3-10 1.2-13.3 2.6-7.7 3.3-4.3 3.3.8 3.8 8.6.8 16.9 2.4 24.7 5.6 8.3 3.4 12 4.6 1.1 3.6-12.1-1.1-16.3.1-16 2.6 11.1 2.6 21.6 5.7 30.6 9.8 8.3 3.8 14.4 6.5 1.4 2.4-8.4-2.7-14.7-3.8-15.3-1.1z"/><path fill-rule="evenodd" clip-rule="evenodd" fill="#EF7C04" d="M122.5 5.1l1.8-.9c9.9 6.4 26.3 41.5 11.8 44.4-11.2 2.3-10.2-15.7-9.8-22.7.5-8.5-1.8-16.2-3.8-20.8z"/><path fill-rule="evenodd" clip-rule="evenodd" fill="#FFD900" d="M167.8.4c.8-.2 1-.2 1.8-.4 7.5 7.7 14.9 42.3 1.4 41.9-10.4-.3-5.8-16-4.1-22.2 2.2-7.5 1.7-14.8.9-19.3zM78.6 23.5c.7-.6.8-.8 1.5-1.4 11.3 3.2 37.2 32.1 24.2 39.1-10.1 5.4-14.3-12.1-16-18.9-2.1-8.3-6.5-14.9-9.7-18.8z"/><path fill-rule="evenodd" clip-rule="evenodd" fill="#EF7C04" d="M42.5 53.3c.5-.8.6-1 1-1.8 11.8-.2 44.8 20.1 34.3 30.6-8.1 8.1-17.1-7.5-20.7-13.6-4.3-7.3-10.4-12.5-14.6-15.2z"/><path fill-rule="evenodd" clip-rule="evenodd" fill="#FFD900" d="M12.6 90.9c.2-.9.3-1.1.5-2C24.3 85.3 61.9 95 54.9 108c-5.4 10.1-18.6-2.1-23.8-6.9-6.3-5.7-13.7-8.8-18.5-10.2z"/><path fill-rule="evenodd" clip-rule="evenodd" fill="#EF7C04" d="M3.5 134.1c0-.8 0-1-.1-1.7 8.4-5.5 41.4-6.1 38.6 6.2-2.1 9.5-15.7 2.5-21-.2-6.5-3.4-13.2-4.3-17.5-4.3z"/><path fill-rule="evenodd" clip-rule="evenodd" fill="#FFD900" d="M1.8 174.2c-.2-.6-.3-.8-.5-1.5C7 165.9 35 157 35.8 168.2c.6 8.6-12.8 6.1-18 5.2-6.4-1.2-12.3-.2-16 .8z"/><path fill-rule="evenodd" clip-rule="evenodd" fill="#EF7C04" d="M6.7 207.2c-.2-.5-.3-.6-.5-1.1 4.3-5.7 26.2-14 27.3-5.1.9 6.9-9.9 5.4-14.2 4.9-5-.7-9.8.3-12.6 1.3z"/><path fill-rule="evenodd" clip-rule="evenodd" fill="#91C13D" d="M290.6 194.3c5.7 8.4 10.3 20.2 14.2 32.7 2.6 8.3 2.1 11.6 4 1.2 6-31.6 6-62.8-1.6-85.6-3.3-10.1-6.6-17.5-11.9-23.9-10.6-12.7-23-18.1-37.5-20.7-20-3.5-13-2-.3 3.3 6.3 2.6 12.3 5.8 17.7 9.7 9.8 7.3 5.9 4.5-.9 2.6-4.2-1.1-8.4-1.5-12.8-1.2-.8.1-1.7.1-2.5.2-8 .9-5.7.9.1 2.7 10.6 3.2 19.7 7.3 26.1 12.8 7.3 6.3 2.8 3.9-2.8 2.5-5.1-1.3-9.4-2-12.9-2.2-7.6-.6-10.5-.7-2.2 2.6 7.8 3.1 15.6 6.7 23.1 12.2 4.8 3.5 7.5 4.8.4 2.5-6.7-2.1-12.2-3-16.6-2.8-6.9.2-4.8.6-.4 2.7 7 3.3 13.9 7.2 20.9 12.9 8.6 7.1 3.5 3.7-2.8 1.6-5.6-1.9-10.1-2.8-13.7-2.8-7.6-.1-3.6 1 .2 3.1 8.8 4.8 17.4 10.7 23.9 18.3 5.8 6.7 4.2 5.2-1.6 1.9-4.6-2.6-9.2-4.7-13.3-6-10-3.2-6.6-1.5-1.2 2.7 5.3 4.1 10.5 9.8 15.1 16.1 6.4 8.6 5.6 7.1-1.4 1.6-2.8-2.2-5.6-4-8.4-5.3-9.5-3.9-3.6.7-.9 4.6zm67.8 16.2c-12.2 5.2-24.5 11.9-36.9 21.8-6.7 5.4-8.7 9.6-4.8-.7 12.2-32.5 28-58.4 47-78.2 9.3-9.8 19.1-18.2 30.5-24.1 12.1-6.3 26.7-10.1 40.4-8 6.7 1 12.8 3.3 18.6 6.2 11.4 5.9 11.7 5.5.2 3.1-10.3-2.1-22-2.8-33-.9-14.4 2.6-9.2 2.3.5 3.6 8.6 1.1 16.6 3.2 22.6 7.1 6.3 4.1 5.2 3.9-.8 2.7-9.8-1.9-19.8-3.1-30.2-2.6-18.8 1-9.1.6-.1 2.8 5.3 1.3 10 3.4 14.3 6.2 9.7 6.2 5.4 4.4-2.2 3-7.7-1.4-15.5-2.3-23.6-1.6-15.6 1.3-12.1 1.1-1.3 3.6 5.9 1.4 11 3.5 15.2 6.4 7.9 5.3 3.9 3.8-2.2 3-9-1.2-17.9-1.6-26.5 0-12.9 2.5-9.7 2.4-.1 3.3 8.6.9 14.1 2.7 17.6 5 5.5 3.7 2 2.9-2 2.8-9.3-.1-18.6.2-28.2 2.4-14.5 3.4-11.9 2.9-.4 3.8 5.6.4 10.1 1.4 13.4 2.9 7.6 3.4 4.2 3.4-.9 3.7-8.6.6-17.1 2-25 5.1-8.4 3.3-12.2 4.3-1.2 3.6 12.2-.8 16.4.5 16.1 2.9-11.2 2.4-21.9 5.2-31 9.1-8.4 3.6-14.6 6.2-1.4 2.4 8.5-2.1 14.9-3.1 15.4-.4z"/><path fill-rule="evenodd" clip-rule="evenodd" fill="#FFDA00" d="M179.6 49.5c39.1 0 74.4 16.2 99.6 42.3 8.2 8.5 5 5.4-2 1C255.3 79 229.3 71 201.5 71c-78.9 0-142.9 64-142.9 142.9 0 19.1 3.7 37.3 10.5 54 4.1 10 3.5 8.5-2.4.3-16.1-22.6-25.6-50.3-25.6-80.3 0-76.4 62-138.4 138.5-138.4z"/><path fill-rule="evenodd" clip-rule="evenodd" fill="#FFD900" d="M16.3 236.8c-.2-.4-.3-.5-.6-.9 2.8-5.5 20.4-15.7 22.7-8.3 1.7 5.8-7.7 6.1-11.4 6.2-4.5.2-8.4 1.8-10.7 3z"/><path fill-rule="evenodd" clip-rule="evenodd" fill="#EF7C04" d="M34.4 263.6c-.2-.3-.3-.3-.6-.6 1.3-4.6 13.1-15 15.9-9.7 2.2 4.1-4.9 5.7-7.7 6.4-3.3.8-6 2.6-7.6 3.9zM214.3 3h1.9c5.5 9.2 4.5 44.6-8.5 41.1-10.1-2.7-1.9-17 1.3-22.6 3.8-6.7 5-13.9 5.3-18.5z"/><path fill-rule="evenodd" clip-rule="evenodd" fill="#FFD900" d="M253.2 22c.7.1.8.2 1.5.3 3.2 8.4-2.9 37.3-13.1 32.5-7.9-3.7 1-14.2 4.4-18.3 4.2-5.1 6.3-10.8 7.2-14.5z"/><path fill-rule="evenodd" clip-rule="evenodd" fill="#EF7C04" d="M283.6 46.1c.5.3.6.3 1.1.6.3 7.2-11.4 27.8-18 21.6-5.1-4.8 4.2-10.6 7.9-12.9 4.4-2.8 7.4-6.6 9-9.3z"/><path fill-rule="evenodd" clip-rule="evenodd" fill="#FFD900" d="M303.3 71.9c.3.3.4.4.7.6-1.1 5.5-13.6 18.8-17.4 12.9-2.9-4.5 5.1-7.2 8.3-8.2 3.7-1.3 6.7-3.6 8.4-5.3z"/><path fill-rule="evenodd" clip-rule="evenodd" fill="#3286C7" d="M82.8 303.8c-62-2.1-79.3 51-60.1 98.9 4.1 10.1 11.5 21-3.4 4.9-4.5-4.8-8.2-10.2-11.1-16.2-7.4-15.1-10-35-6.9-51.5 7.8-41.5 49.5-60.1 85.7-41.2 17.2 9 6.3 5.4-4.2 5.1z"/><path fill-rule="evenodd" clip-rule="evenodd" fill="#3286C7" d="M125.9 355.4c.2-2.8-.1-5.8-.8-8.6-2.5-10.1-8.6-16.9-17.7-21.4-4.2-2-8.7-3.5-13.1-4.4-23.3-4.8-48.2 7.8-56.3 36.7-6.7 23.7-1.1 47.2 15.8 66.1 48.3 54 131.4-3 175.9-31 26.4-16.6 50.5-27.6 72.5-34.9 21.7-7.2 39-9.5 61.5-10.4 6-.2 12.7-.4 20.2-.5 19.7-.3 18.3-.6-.6-4.3-29-5.7-58.6-3.5-88.4 2.3-32.2 4.4-73.4 25.4-111.7 44.4-23.2 11.5-38 20-64.5 22.4-50.2 4.6-69.5-39.8-42.7-67.7 6.7-7 15.8-9.2 24.8-6.6 18 5.2 23.6 19.7 14.1 33.7-2 2.9-2.3 3.3.9 1.9 1.2-.5 2.8-2 4.2-3.6 3.2-3.8 5.6-9 5.9-14.1z"/><path fill-rule="evenodd" clip-rule="evenodd" fill="#2B465F" d="M467.3 293.4l2.6-7.7c-1.4-.2-2.8-.6-3.8-1.6-.9-1-1.5-2.1-1.9-3.4l-.1-.4 4.1-3v1.7c0 .9.2 1.7.8 2.4.5.6 1.2.9 1.9 1.1.2-.5.4-1 .6-1.6.4-1.2.9-2.3 1.4-3.4.6-1.4 1.4-2.7 2.2-4 .9-1.4 1.9-2.7 3.1-3.8 1.2-1.2 2.6-2.1 4.1-2.9 1.7-.8 3.5-1.2 5.3-1.2 1.6 0 3 .4 4.3 1.2 1.5 1 2.1 2.5 2.1 4.2 0 1.9-.8 3.7-2 5.2-1.3 1.7-2.9 3.2-4.7 4.5-1.9 1.4-4 2.5-6.2 3.4-1.9.8-3.9 1.4-6 1.8l-5.9 17.8c-.3.9-.5 1.9-.8 2.8-.2.8-.4 1.7-.4 2.5s.3 1.5.8 2.1c.6.8 2.1.9 3 .9.5 0 1.2 0 1.6-.2.2-.1.3-.2.5-.3-.9-.8-1.6-1.8-2.2-2.9-.8-1.7-1-3.8-1-5.7 0-1.8.4-3.7.8-5.4.6-2.1 1.4-4.1 2.5-6 1.1-1.9 2.5-3.5 4.3-4.9 1.8-1.4 3.8-2.1 6.1-2.1 1 0 1.9.2 2.8.6.8.4 1.5.9 2.1 1.6.6.7 1 1.4 1.3 2.3.3.9.4 1.7.4 2.6 0 2.3-.6 4.4-1.5 6.4-1 2.1-2.2 4.1-3.6 6-1.3 1.7-2.7 3.3-4.3 4.8-.8.7-1.6 1.5-2.5 2.1.1 0 .1 0 .2.1.4.1.9.2 1.3.2 2 0 3.9-.7 5.6-1.7 2-1.2 3.8-2.6 5.4-4.2 1.6-1.5 3.2-3.2 4.6-4.9 1-1.3 2.1-2.6 3.1-3.9.1-.2.2-.4.4-.5.1-.1.2-.3.3-.4l2-1.9-1.4 4.3-.1.1c-.2.3-.4.5-.5.7-1 1.4-2 2.7-3.1 4-1.4 1.8-3 3.4-4.6 5-1.7 1.6-3.6 3.1-5.7 4.3-2 1.2-4.2 1.8-6.6 1.8-.8 0-1.6-.1-2.4-.4-.6-.2-1.2-.4-1.8-.7l-2.7 1.2c-1.6.6-3.3.8-5 .8-1.6 0-3.2-.4-4.4-1.5-1-1-1.5-2.2-1.5-3.7 0-1.1.2-2.2.5-3.2.3-1.1.6-2.2 1-3.3l1.4-4.4c-.3.4-.6.8-.9 1.3-.8 1.1-1.6 2.1-2.4 3.1l-3.3 3.6c-1.2 1.3-2.6 2.4-4 3.5-1.4 1-2.9 1.9-4.5 2.6-1.5.7-3.1 1.1-4.7 1.1-.7 0-1.5-.1-2.2-.3-.6-.1-1.1-.3-1.7-.5l-2.1.9c-1.4.6-2.9.8-4.4.8-2 0-3.9-.6-5.2-2.1-1.3-1.6-1.7-3.6-1.7-5.6 0-1.6.3-3.2.8-4.8.6-1.7 1.3-3.4 2.2-5 1-1.7 2.1-3.3 3.4-4.8 1.3-1.5 2.7-2.9 4.3-4.1 1.5-1.2 3.1-2.1 4.9-2.9 1.7-.7 3.5-1.1 5.3-1.1 2 0 3.9.5 5.3 2 1.3 1.4 1.8 3.2 1.8 5.1 0 2.3-.6 4.6-1.5 6.7-1 2.1-2.2 4.1-3.6 6a48.1 48.1 0 0 1-4.2 4.8c-.7.7-1.5 1.4-2.3 2 .3.1.6.1.9.1 1.4 0 2.8-.3 4.2-.9 1.5-.6 2.8-1.4 4.1-2.4 1.3-1 2.6-2.1 3.8-3.3 1.1-1.1 2.2-2.3 3.3-3.5.9-1 1.8-2.1 2.6-3.2.6-.8 1.1-1.5 1.7-2.3l2.3-2.1zM192 291.7c-.1.3-.3.6-.4.9-1.4 2.9-2.7 5.9-3.9 8.9-1 2.5-2 5.1-2.8 7.7-.5 1.5-1.1 3.1-1.5 4.7l-.1.4-10.7 1.5 7.7-24c.9-2.7 1.7-5.4 2.4-8.1.4-1.7 1-3.8 1.1-5.5 0-.6-.1-1.2-.5-1.7-.4-.4-.8-.7-1.3-.9-.7-.2-1.3-.3-2-.4-.7-.1-1.5-.1-2.2-.1h-1l1-2.8 16.9-1.4-13.5 41.3h.2c.6-1.2 1-2.7 1.4-3.9.9-2.7 1.9-5.4 3-8 1.3-3.3 2.7-6.5 4.3-9.7 1.6-3.3 3.4-6.5 5.5-9.5 1.9-2.7 4-5.2 6.6-7.2 2.3-1.8 5-2.9 7.9-2.9 1.4 0 2.7.4 3.9 1.2l.5.3-3.5 6.5-.6-1.3c-.6-1.5-1.8-2-3.4-2-2 0-3.7 1-5.1 2.3-2 1.8-3.7 4-5.2 6.2-1.2 1.9-2.4 3.8-3.4 5.8h6l.3 1.6c.5 1.8.9 3.7 1.4 5.5.5 2.1 1.1 4.1 1.8 6.1.6 1.7 1.4 3.4 2.4 4.9.6.9 1.5 1.8 2.6 1.8 1.3 0 2.7-.7 3.8-1.3 1.7-1 3.3-2.3 4.8-3.6 1.7-1.5 3.4-3.1 5-4.8 1.3-1.4 2.6-2.8 3.8-4.2.8-2.1 1.7-4.1 2.8-6 1.4-2.5 3.1-4.9 5-7.1 1.9-2.2 4-4.3 6.3-6.1 2.2-1.7 4.7-3.2 7.3-4.2 2.5-1 5.1-1.6 7.8-1.6 2.9 0 5.7.7 7.7 2.9 1.9 2.1 2.6 4.7 2.6 7.4 0 3.4-.8 6.7-2.3 9.9-1.5 3.2-3.2 6.1-5.3 8.9-1.9 2.5-4 4.9-6.3 7.1-1.2 1.1-2.6 2.4-3.9 3.5.1 0 .3.1.4.1.6.1 1.1.2 1.7.2 2.2 0 4.3-.5 6.3-1.3 2.2-.9 4.3-2.1 6.2-3.6 2-1.5 3.9-3.1 5.7-4.9 1.3-1.3 2.6-2.7 3.9-4.1.8-2.4 1.9-4.8 3.2-7 1.4-2.5 3.1-4.9 5-7.1 1.9-2.2 4-4.3 6.3-6.1 2.2-1.7 4.7-3.2 7.3-4.2 2.5-1 5.1-1.6 7.8-1.6 2.9 0 5.7.7 7.7 2.9 1.9 2.1 2.6 4.7 2.6 7.4 0 3.4-.8 6.7-2.3 9.9-1.5 3.2-3.2 6.1-5.3 8.9-1.9 2.5-4 4.9-6.3 7.1-3.8 3.6-6.3 5.2-11 7.3-2 .9-4.2 1.2-6.4 1.2-2.9 0-5.6-.8-7.5-3-1.9-2.3-2.5-5.2-2.5-8.1 0-.9.1-1.7.2-2.6-.5.6-1.1 1.2-1.7 1.7-1.8 1.9-3.8 3.6-5.9 5.2-2 1.5-4.2 2.8-6.6 3.9-2.2 1-4.5 1.5-6.9 1.5-1.1 0-2.1-.1-3.2-.4-.9-.2-1.7-.5-2.6-.8-1 .5-2.2 1-3.2 1.5-2 .9-4.2 1.2-6.4 1.2-2.9 0-5.6-.8-7.5-3-1.9-2.3-2.5-5.2-2.5-8.1 0-1.1.1-2.1.3-3.1-.9 1-1.9 2.1-2.8 3.1-1.8 1.9-3.6 3.7-5.5 5.4-1.7 1.5-3.5 2.9-5.4 4.1-1.4.9-3.2 1.7-4.9 1.7-1.5 0-2.7-.8-3.7-1.8-1.2-1.2-2.1-2.7-2.9-4.1-.9-1.7-1.7-3.6-2.3-5.4-.7-1.9-1.3-3.8-1.9-5.7-.5-1.6-.9-3.2-1.3-4.8-.7-1.2-.9-1.8-1-2.5zm132.6-2.9c1.5-1.2 3.2-2.2 5-3 1.8-.8 3.7-1.2 5.6-1.2 1.3 0 2.8.1 4 .5.8.3 1.6.5 2.4.8l.7.2-2.6 5.7-.7-.9c-.3-.4-.5-.7-.8-1.1-.3-.4-.7-.8-1.1-1.1-.5-.4-1-.7-1.6-.9-.7-.3-1.5-.3-2.2-.3-1.2 0-2.3.3-3.3.9-1.2.6-2.2 1.5-3.2 2.4-1 1-1.9 2.2-2.7 3.4-.8 1.3-1.5 2.6-2.1 4-.5 1.3-1 2.6-1.3 4-.3 1.1-.5 2.2-.5 3.4 0 .7.1 1.3.2 2 .1.6.3 1.2.7 1.7.4.6 1 .9 1.6 1.2.9.4 2.1.5 3 .5 2.3 0 4.5-.6 6.6-1.8 2.2-1.2 4.2-2.7 6-4.3 1.7-1.6 3.4-3.2 4.8-5.1 1.1-1.3 2.1-2.7 3.1-4l2.9-3.7c.1-.5.2-.9.3-1.4.1-.5.2-1.1.2-1.7 0-1.2-1.7-1.2-2.5-1.2H345l.8-2.3 11.6-1-6.2 19.3c.2-.4.4-.8.5-1.1 1-2.1 2.1-4.2 3.2-6.2 1.2-2 2.5-4 3.9-5.8 1.3-1.6 2.8-3.1 4.5-4.3 1.5-1.1 3.3-1.8 5.2-1.8 1.3 0 2.4.4 3.3 1.3.8.8 1.2 1.8 1.2 2.9 0 1.1-.2 2.2-.5 3.3l-.9 3-3 9.3c.1-.2.2-.4.3-.7 1-2.2 2.1-4.3 3.2-6.4 1.2-2.1 2.5-4.2 4-6.2 1.3-1.8 2.9-3.4 4.7-4.7 1.6-1.2 3.4-1.9 5.4-1.9 1.3 0 2.6.4 3.5 1.4.7.9 1.1 1.9 1.1 3s-.2 2.2-.5 3.2-.6 2-1 3l-2.7 8.2c-.4 1.3-.8 2.6-1.1 4-.2.7-.4 1.8-.4 2.5 0 .2.1.4.2.6.1.1.3.2.4.2.7 0 1.5-.4 2.1-.8 1-.7 2-1.4 2.9-2.3 1.1-1 2.2-2.1 3.2-3.2s2-2.2 3-3.4c.8-1 1.7-2 2.5-3 .5-.6 1.1-1.3 1.6-2l2.1-2.9v-.1c.3-1 .7-2.5.7-3.6 0-.3 0-.7-.3-1-.2-.2-.5-.4-.8-.5-.4-.1-.9-.2-1.3-.3-.5 0-1-.1-1.5-.1h-1l.8-2.3 11.8-1L404 308c.4-.9.8-1.9 1.2-2.8 1.1-2.6 2.3-5.1 3.6-7.5 1.2-2.3 2.5-4.5 4-6.5 1.3-1.7 2.7-3.4 4.4-4.7 1.4-1.1 3.1-1.8 4.9-1.8.8 0 1.6.2 2.3.6.7.4 1.2.9 1.6 1.6.4.7.7 1.4.9 2.2.2.8.3 1.6.3 2.4 0 1.7-.3 3.4-.7 5-.5 1.8-1.2 3.6-2 5.3-.9 1.7-1.9 3.4-3 4.9-1.1 1.5-2.3 2.9-3.7 4.2-1.3 1.2-2.6 2.2-4.2 2.9-1.4.7-2.9 1.1-4.4 1.1-.8 0-1.6-.1-2.3-.3-.6-.2-1.1-.4-1.6-.7-.4-.2-.7-.5-1-.8l-.6 1.8c-.5 1.4-.9 2.8-1.4 4.2-.4 1.3-.9 2.6-1.3 3.9-.3 1.1-.7 2.2-1 3.3-.2.7-.5 1.4-.7 2.1l-.1.4-7.7 1 10.2-31.2c-.5.7-1 1.3-1.5 2l-2.7 3.3c-1.1 1.3-2.3 2.5-3.4 3.7-1.2 1.2-2.5 2.4-3.8 3.5-1.2 1-2.5 1.9-3.9 2.7-1.2.6-2.4 1.1-3.8 1.1-1 0-1.8-.4-2.4-1.1-.6-.7-.9-1.5-.9-2.4 0-.6.1-1.2.2-1.7.1-.7.3-1.5.6-2.2.2-.8.5-1.6.7-2.3.2-.7.5-1.5.7-2.2l2.9-9c.2-.8.4-1.6.6-2.5.1-.5.3-1.2.3-1.7 0-.4-.2-.8-.3-1.1-.2-.4-.5-.4-.9-.4-1.2 0-2.3.7-3.2 1.5-1.4 1.2-2.5 2.6-3.6 4.1-1.3 1.8-2.4 3.6-3.4 5.6-1 2-2 3.9-2.9 5.9-.8 1.7-1.5 3.4-2.2 5.1-.4 1.1-.9 2.1-1.2 3.2l-.1.4-7.7 1.2 6.2-19c.4-1.2.8-2.5 1.1-3.7.2-.8.5-1.8.5-2.6 0-.4-.1-.8-.3-1.2-.2-.4-.7-.4-1.1-.4-1.3 0-2.4.7-3.3 1.6-1.4 1.3-2.6 2.7-3.6 4.3-1.3 1.8-2.4 3.8-3.4 5.8s-2 4-2.9 6c-.7 1.6-1.4 3.3-2.1 5-.3.9-.7 1.8-1 2.8l-.1.4-7.6 1.2 5.7-17.6-.3.3c-.9 1.2-2 2.6-2.3 3-.9 1.2-1.9 2.4-2.9 3.5-1.2 1.3-2.5 2.6-3.8 3.7-1.4 1.3-3 2.4-4.6 3.4-1.7 1-3.4 1.9-5.3 2.5-1.9.6-3.8 1-5.8 1-1.3 0-2.7-.1-3.9-.6-1-.4-1.9-1-2.7-1.8-.7-.7-1.2-1.6-1.5-2.6-.8-2.4-.5-5 .3-7.3 1.6-5.8 6.1-11.4 9.5-14.2zm-195.5-29.5c3-2.4 6.3-4.4 9.9-5.9 3.6-1.5 7.3-2.2 11.2-2.2 5.8 0 11.5 1.3 15.9 5.4 4.3 4 5.8 9.3 5.8 15 0 5.3-1.1 10.4-3.1 15.3-2 5.1-4.8 9.9-8.4 14.1-3.5 4.2-7.6 7.7-12.3 10.4-4.7 2.7-9.8 4.1-15.2 4.1-4.4 0-8.8-.9-12.6-3.2-3.6-2.2-6-5.4-7.4-9.3l-.1-.4 8.1-8.5v1.6c.1 2.2.4 4.5 1 6.7.5 1.9 1.3 3.8 2.5 5.4 1 1.5 2.3 2.7 3.9 3.6 1.7 1 3.6 1.3 5.6 1.3 4 0 7.6-1.3 10.9-3.4 3.7-2.4 6.8-5.6 9.4-9.2 2.8-4 4.9-8.4 6.5-13 1.6-4.8 2.5-9.8 2.5-14.8 0-2.3-.3-4.6-.8-6.8-.5-2.1-1.3-4.1-2.5-5.8-1.1-1.6-2.4-3-4-4s-3.5-1.5-5.4-1.5c-3.7 0-7.2 1.1-10.3 3.1-3.4 2.1-6.3 4.8-8.7 7.9l-.9 1.2-1.4-6.6-.1-.5zm26.8 24.7c-2.2-1.1-4.3-2.2-6.5-3.3-2.5-1.2-5.1-2.3-7.7-3.3-2.5-.9-5.1-1.8-7.7-2.4-2.4-.6-4.9-1-7.4-1.2h-.9l1.3 6.5.7-.1c1.3-.3 2.7-.5 4.1-.5 1.9 0 3.8.2 5.7.6 2.1.4 4.2.9 6.2 1.6 2.1.7 4.1 1.5 6.1 2.4 1.8.8 3.5 1.7 5.2 2.7-.7 2.1-1.5 4.1-2.5 6-1 2-2.2 4-3.5 5.8-1.2 1.7-2.6 3.4-4.1 4.9-1.3 1.3-2.7 2.5-4.3 3.6l-.7.5 1.6 1.5.4-.2c3.4-1.8 6.2-4.3 8.6-7.3 2.4-3 4.5-6.3 6.1-9.8 1.6-3.3 2.8-6.8 3.7-10.3.7-2.8 1.2-5.8 1.2-8.7 0-2.1-.2-4.3-.8-6.4-.5-1.9-1.2-3.7-2.2-5.4-.9-1.5-2.1-2.8-3.6-3.9-1.4-1-3.1-1.7-4.8-1.9l-1-.1 1.2 5.2.4.1c1.1.4 2 1 2.7 1.9.8 1.1 1.5 2.3 2 3.6.6 1.5.9 3 1.2 4.6.2 1.6.3 3.2.3 4.9.1 2.7-.3 5.6-1 8.4zm85.9-5.5c-.2.1-.3.3-.5.4-2 1.9-3.8 4-5.3 6.3-1.7 2.6-3.1 5.3-4.1 8.2-1.1 3-1.7 6.2-1.7 9.4 0 2 .4 4.1 1.6 5.8 1.2 1.8 3.6 2.2 5.6 2.2.5 0 1 0 1.5-.1h.2c-.4-.3-.7-.7-1-1-.7-.8-1.3-1.6-1.7-2.5-.6-1.1-1-2.3-1.2-3.5-.3-1.5-.4-3.2-.4-4.7 0-2.8.3-5.6.9-8.3.6-2.4 1.4-4.7 2.5-6.8 1-2 2.2-3.8 3.6-5.4zm1.2 30.6c1.1-.9 2.2-2 3.1-3 1.7-1.8 3.1-3.8 4.4-5.9 1.5-2.4 2.7-5 3.7-7.7 1-2.8 1.6-5.7 1.6-8.7 0-2.1-.4-4.1-1.5-6-.9-1.6-2.3-2.3-4.2-2.3-1.9 0-3.5.8-4.8 2.1-1.6 1.5-3 3.4-4 5.4-1.2 2.2-2.1 4.6-2.7 7-.6 2.2-1 4.5-1 6.8 0 2.6.3 5.7 1.7 8 1 1.8 2.2 3.2 3.7 4.3zm45.1-30.6c-.2.1-.3.3-.5.4-2 1.9-3.8 4-5.3 6.3-1.7 2.6-3.1 5.3-4.1 8.2-1.1 3-1.7 6.2-1.7 9.4 0 2 .4 4.1 1.6 5.8 1.2 1.8 3.6 2.2 5.6 2.2.5 0 1 0 1.5-.1h.2c-.4-.3-.7-.7-1-1-.7-.8-1.3-1.6-1.7-2.5-.6-1.1-1-2.3-1.2-3.5-.3-1.5-.4-3.2-.4-4.7 0-2.8.3-5.6.9-8.3.6-2.4 1.4-4.7 2.5-6.8 1-2 2.2-3.8 3.6-5.4zm1.2 30.6c1.1-.9 2.2-2 3.1-3 1.7-1.8 3.1-3.8 4.4-5.9 1.5-2.4 2.7-5 3.7-7.7 1-2.8 1.6-5.7 1.6-8.7 0-2.1-.4-4.1-1.5-6-.9-1.6-2.3-2.3-4.2-2.3-1.9 0-3.5.8-4.8 2.1-1.6 1.5-3 3.4-4 5.4-1.2 2.2-2.1 4.6-2.7 7-.6 2.2-1 4.5-1 6.8 0 2.6.3 5.7 1.7 8 1 1.8 2.1 3.2 3.7 4.3zm116 1l1.9-1.5.2 1.1c0 .2.2.5.3.7.1.3.3.6.6.9.3.3.6.6 1 .8.4.2.9.3 1.4.3 1 0 1.9-.4 2.7-.9 1-.7 1.9-1.7 2.6-2.7.9-1.2 1.6-2.5 2.2-3.8.7-1.4 1.3-2.9 1.7-4.4.5-1.4.8-2.9 1.1-4.4.2-1.2.4-2.4.4-3.6 0-.4 0-.8-.1-1.3-.1-.4-.2-.7-.3-1.1-.2-.3-.3-.5-.6-.8-.2-.2-.4-.2-.7-.2-1.4 0-2.7.9-3.7 1.9-1.5 1.5-2.8 3.2-3.9 4.9-1.3 2-2.4 4.1-3.5 6.3l-2.7 6-.6 1.8zm-54.1-29.7c3.4 0 6.8-.1 10.2-.5 3.1-.3 6.1-.8 9.1-1.5 2.9-.7 5.8-1.5 8.6-2.6 2.9-1 5.7-2.3 8.4-3.6l.3-.1 6.4 2.9-1.6.6c-3.5 1.3-7.1 2.5-10.7 3.4-3.2.8-6.4 1.5-9.6 1.9-3.2.5-6.5.8-9.8 1.1-3.7.3-7.4.5-11.2.7h-.7l-.2-2.3h.8zm87.9 31l-.4-.4c-.5-.5-.9-1.1-1.2-1.7-.4-.7-.7-1.6-.8-2.4-.2-1-.3-2.1-.3-3.2 0-1.9.2-3.8.6-5.6.4-1.6.9-3.2 1.7-4.6.2-.3.3-.6.5-.9-.6.7-1.1 1.4-1.6 2.1-1.1 1.7-2 3.5-2.7 5.5-.7 2-1.1 4.1-1.1 6.2 0 1.3.3 2.7 1 3.8.8 1.1 2.3 1.3 3.6 1.3.2-.1.4-.1.7-.1zm3-1.2c.7-.6 1.4-1.3 1.9-1.9 1.1-1.2 2.1-2.5 2.9-3.9 1-1.6 1.8-3.3 2.5-5.1.7-1.8 1-3.8 1-5.7 0-1.4-.3-2.7-.9-3.9-.6-1-1.4-1.4-2.6-1.4-1.2 0-2.2.5-3.1 1.3-1.1 1-2 2.2-2.6 3.6-.8 1.5-1.4 3-1.8 4.7-.4 1.5-.6 3-.6 4.5 0 1.7.2 3.8 1.1 5.3.5.9 1.2 1.8 2.2 2.5zm34.6-.3c.9-.7 1.8-1.6 2.6-2.5 1.1-1.2 2.1-2.6 2.9-4 .9-1.5 1.6-3.1 2.2-4.8.5-1.6.8-3.3.8-5 0-.6-.1-1.3-.2-1.9-.1-.6-.3-1.2-.6-1.7-.2-.5-.6-.8-1-1.1-.5-.3-1.1-.4-1.6-.4-1 0-1.9.5-2.7 1.1-1.1.9-2 1.9-2.7 3.1-.9 1.4-1.5 2.9-2 4.4-.5 1.7-.8 3.3-.8 5.1 0 1.6.2 3.6 1 5.1.6 1.1 1.3 1.9 2.1 2.6zm-.4-26.9c1.3-.1 2.5-.5 3.7-.9 1.7-.6 3.3-1.4 4.7-2.4 1.4-1 2.6-2.2 3.5-3.6.9-1.3 1.4-2.8 1.4-4.4 0-1-.3-1.9-1-2.6-.7-.7-1.6-1-2.6-1s-1.9.3-2.6.9c-.9.7-1.7 1.6-2.3 2.6-.7 1.1-1.4 2.3-1.9 3.5-.5 1.2-1 2.5-1.5 3.8-.4 1.1-.7 2.1-1.1 3.2 0 .3-.1.6-.3.9z"/></symbol><symbol viewBox="0 0 600.759 600.759" id="map"><path d="M203.993 295.287c21.001 0 38.024 17.023 38.024 38.018s-17.023 38.024-38.024 38.024c-20.998 0-38.021-17.029-38.021-38.024s17.023-38.018 38.021-38.018z"/><path d="M574.267 325.822l25.782-203.262-184.936-70.182-221.834 105.959L0 76.71l26.099 216.848L1.085 507.093l205.36 38.521 209.46-39.892 184.854 42.658-26.492-222.558zM414.428 73.909l163.811 61.731-11.277 88.88-163.273-41.301 10.739-109.31zm-21.669 11.283l-8.642 93.06-.142-.033L270.929 192.8l-.677 2.494c-.142.538-13.258 48.995-27.08 71.033-8.946-5.261-19.006-8.784-29.755-10.09l-9.164-81.028 188.506-90.017zm-17.283 207.574l-98.251 14.815c-5.291-14.969-14.999-27.825-27.606-37.022 12.862-20.531 24.471-60.278 27.394-70.77l106.361-13.728-7.898 106.705zM184.269 176.197l9.079 80.236c-29.864 4.113-54.358 25.2-63.336 53.217l-83.779-12.968-8.045-77.706c27.769-1.838 48.599-10.875 61.948-27 12.034-14.514 15.495-31.685 16.157-44.484l67.976 28.705zM24.187 108.596l84.465 35.668c-.242 11.777-2.905 28.865-14.443 42.791-12.037 14.514-31.182 22.632-56.998 24.261l-13.024-102.72zm-1.09 382.325l20.779-174.402 82.626 12.803c-.062 1.324-.195 2.636-.195 3.989 0 18.164 6.307 34.856 16.807 48.108l-42.912 34.459-13.521 86.959-63.584-11.916zm161.878 30.358l-90.721-17.017 13.104-84.252 40.837-32.781c12.528 12.95 29.48 21.593 48.421 23.377l-11.641 110.673zm-43.246-187.968c0-34.348 27.935-62.281 62.264-62.281 34.347 0 62.282 27.934 62.282 62.281 0 34.33-27.935 62.265-62.282 62.265-34.33.006-62.264-27.935-62.264-62.265zm64.69 191.987l-1.75-.33 12.12-115.119c36.756-6.135 64.9-38.076 64.9-76.556 0-2.081-.15-4.114-.313-6.159l96.038-14.481 8.016 81.911c-42.132 1.98-73.625 14.932-93.449 38.857-23.114 27.923-24.205 62.737-23.008 79.949l-62.554 11.928zm70.247-13.381c-.931-16.337.419-48.397 21.264-73.565 18.438-22.26 48.182-34.271 88.244-36.091l8.535 87.154-118.043 22.502zm126.307-320.946l163.03 41.225-9.776 77.017-160.974-19.431 7.72-98.811zm131.083 184.774l-74.175-8.819 13.584 131.58-59.428-12.773-16.852-176.034 1.732-.272 155.612 19.754 23.022 193.354-96.298-22.213-12.714-124.599 66.111 7.672-.594-7.65z"/></symbol><symbol viewBox="0 0 41.756 41.756" id="modal-close"><path d="M27.948 20.878L40.291 8.536a5 5 0 1 0-7.07-7.071L20.878 13.809 8.535 1.465a5 5 0 0 0-7.07 7.071l12.342 12.342L1.465 33.22a5 5 0 1 0 7.07 7.071l12.343-12.342 12.343 12.343c.976.977 2.256 1.464 3.535 1.464s2.56-.487 3.535-1.464a5 5 0 0 0 0-7.071L27.948 20.878z"/></symbol><symbol viewBox="0 0 306 306" id="owl-next"><path d="M94.35 0l-35.7 35.7L175.95 153 58.65 270.3l35.7 35.7 153-153z"/></symbol><symbol viewBox="0 0 306 306" id="owl-prev"><path d="M247.35 270.3L130.05 153l117.3-117.3L211.65 0l-153 153 153 153z"/></symbol><symbol viewBox="0 0 512 512" id="scroll"><path d="M369.018 46.807C338.818 16.622 298.682 0 256 0 167.87 0 96.169 71.7 96.169 159.831V352.17C96.169 440.3 167.87 512 256 512s159.831-71.7 159.831-159.831V159.831c0-42.682-16.623-82.818-46.813-113.024zm19.723 305.362c0 73.194-59.546 132.741-132.741 132.741s-132.741-59.546-132.741-132.741V159.831C123.259 86.636 182.806 27.09 256 27.09c35.447 0 68.784 13.806 93.863 38.873 25.072 25.084 38.878 58.421 38.878 93.868v192.338z"/><path d="M256.014 83.979c-7.481 0-13.545 6.064-13.545 13.545v31.831c0 7.481 6.064 13.545 13.545 13.545s13.545-6.064 13.545-13.545V97.524c0-7.481-6.065-13.545-13.545-13.545zm0 68.12c-7.481 0-13.545 6.064-13.545 13.545v4.007c0 7.481 6.064 13.545 13.545 13.545s13.545-6.064 13.545-13.545v-4.007c0-7.481-6.065-13.545-13.545-13.545z"/></symbol><symbol viewBox="0 0 56.966 56.966" id="search"><path d="M55.146 51.887L41.588 37.786A22.926 22.926 0 0 0 46.984 23c0-12.682-10.318-23-23-23s-23 10.318-23 23 10.318 23 23 23c4.761 0 9.298-1.436 13.177-4.162l13.661 14.208c.571.593 1.339.92 2.162.92.779 0 1.518-.297 2.079-.837a3.004 3.004 0 0 0 .083-4.242zM23.984 6c9.374 0 17 7.626 17 17s-7.626 17-17 17-17-7.626-17-17 7.626-17 17-17z"/></symbol><symbol viewBox="0 0 348.077 348.077" id="tel"><path d="M340.273 275.083l-53.755-53.761c-10.707-10.664-28.438-10.34-39.518.744l-27.082 27.076a792.327 792.327 0 0 1-5.344-2.973c-17.102-9.476-40.509-22.464-65.14-47.113-24.704-24.701-37.704-48.144-47.209-65.257-1.003-1.813-1.964-3.561-2.913-5.221l18.176-18.149 8.936-8.947c11.097-11.1 11.403-28.826.721-39.521L73.39 8.194c-10.682-10.68-28.421-10.356-39.518.744l-15.15 15.237.414.411c-5.08 6.482-9.325 13.958-12.484 22.02C3.74 54.28 1.927 61.603 1.098 68.941-6 127.785 20.89 181.564 93.866 254.541c100.875 100.868 182.167 93.248 185.674 92.876 7.638-.913 14.958-2.738 22.397-5.627 7.992-3.122 15.463-7.361 21.941-12.43l.331.294 15.348-15.029c11.074-11.098 11.393-28.83.716-39.542z"/></symbol><symbol viewBox="0 0 548.358 548.358" id="vk"><path d="M545.451 400.298c-.664-1.431-1.283-2.618-1.858-3.569-9.514-17.135-27.695-38.167-54.532-63.102l-.567-.571-.284-.28-.287-.287h-.288c-12.18-11.611-19.893-19.418-23.123-23.415-5.91-7.614-7.234-15.321-4.004-23.13 2.282-5.9 10.854-18.36 25.696-37.397 7.807-10.089 13.99-18.175 18.556-24.267 32.931-43.78 47.208-71.756 42.828-83.939l-1.701-2.847c-1.143-1.714-4.093-3.282-8.846-4.712-4.764-1.427-10.853-1.663-18.278-.712l-82.224.568c-1.332-.472-3.234-.428-5.712.144l-3.713.859-1.431.715-1.136.859c-.952.568-1.999 1.567-3.142 2.995-1.137 1.423-2.088 3.093-2.848 4.996-8.952 23.031-19.13 44.444-30.553 64.238-7.043 11.803-13.511 22.032-19.418 30.693-5.899 8.658-10.848 15.037-14.842 19.126-4 4.093-7.61 7.372-10.852 9.849-3.237 2.478-5.708 3.525-7.419 3.142-1.715-.383-3.33-.763-4.859-1.143-2.663-1.714-4.805-4.045-6.42-6.995-1.622-2.95-2.714-6.663-3.285-11.136-.568-4.476-.904-8.326-1-11.563-.089-3.233-.048-7.806.145-13.706.198-5.903.287-9.897.287-11.991 0-7.234.141-15.085.424-23.555.288-8.47.521-15.181.716-20.125.194-4.949.284-10.185.284-15.705s-.336-9.849-1-12.991a44.442 44.442 0 0 0-2.99-9.137c-1.335-2.95-3.289-5.232-5.853-6.852-2.569-1.618-5.763-2.902-9.564-3.856-10.089-2.283-22.936-3.518-38.547-3.71-35.401-.38-58.148 1.906-68.236 6.855-3.997 2.091-7.614 4.948-10.848 8.562-3.427 4.189-3.905 6.475-1.431 6.851 11.422 1.711 19.508 5.804 24.267 12.275l1.715 3.429c1.334 2.474 2.666 6.854 3.999 13.134 1.331 6.28 2.19 13.227 2.568 20.837.95 13.897.95 25.793 0 35.689-.953 9.9-1.853 17.607-2.712 23.127-.859 5.52-2.143 9.993-3.855 13.418-1.715 3.426-2.856 5.52-3.428 6.28-.571.76-1.047 1.239-1.425 1.427a21.387 21.387 0 0 1-7.71 1.431c-2.667 0-5.901-1.334-9.707-4-3.805-2.666-7.754-6.328-11.847-10.992-4.093-4.665-8.709-11.184-13.85-19.558-5.137-8.374-10.467-18.271-15.987-29.691l-4.567-8.282c-2.855-5.328-6.755-13.086-11.704-23.267-4.952-10.185-9.329-20.037-13.134-29.554-1.521-3.997-3.806-7.04-6.851-9.134l-1.429-.859c-.95-.76-2.475-1.567-4.567-2.427a30.301 30.301 0 0 0-6.567-1.854l-78.229.568c-7.994 0-13.418 1.811-16.274 5.428l-1.143 1.711c-.571.953-.859 2.475-.859 4.57 0 2.094.571 4.664 1.714 7.707 11.42 26.84 23.839 52.725 37.257 77.659 13.418 24.934 25.078 45.019 34.973 60.237 9.897 15.229 19.985 29.602 30.264 43.112 10.279 13.515 17.083 22.176 20.412 25.981 3.333 3.812 5.951 6.662 7.854 8.565l7.139 6.851c4.568 4.569 11.276 10.041 20.127 16.416 8.853 6.379 18.654 12.659 29.408 18.85 10.756 6.181 23.269 11.225 37.546 15.126 14.275 3.905 28.169 5.472 41.684 4.716h32.834c6.659-.575 11.704-2.669 15.133-6.283l1.136-1.431c.764-1.136 1.479-2.901 2.139-5.276.668-2.379 1-5 1-7.851-.195-8.183.428-15.558 1.852-22.124 1.423-6.564 3.045-11.513 4.859-14.846 1.813-3.33 3.859-6.14 6.136-8.418 2.282-2.283 3.908-3.666 4.862-4.142.948-.479 1.705-.804 2.276-.999 4.568-1.522 9.944-.048 16.136 4.429 6.187 4.473 11.99 9.996 17.418 16.56 5.425 6.57 11.943 13.941 19.555 22.124 7.617 8.186 14.277 14.271 19.985 18.274l5.708 3.426c3.812 2.286 8.761 4.38 14.853 6.283 6.081 1.902 11.409 2.378 15.984 1.427l73.087-1.14c7.229 0 12.854-1.197 16.844-3.572 3.998-2.379 6.373-5 7.139-7.851.764-2.854.805-6.092.145-9.712-.677-3.611-1.344-6.136-2.008-7.563z"/></symbol></svg>