<svg version="1" xmlns="http://www.w3.org/2000/svg" width="348" height="348" viewBox="0 0 261.000000 261.000000"><path d="M122.2 5.1c-2.3 2.9-6.4 7.7-9.1 10.8-2.7 3.1-6.7 7.8-8.8 10.5-3.6 4.5-3.8 5.1-2.4 6.6.9.9 4.3 4.7 7.6 8.5s10.4 11.9 15.8 17.9c25.7 28.9 32.9 44.1 32.1 67.9-.7 21.7-7.9 39.1-22.4 53.8-14.3 14.6-34.4 22.2-57 21.5-16.6-.6-34.7-8.7-48-21.5-.8-.7-1.6-.9-1.7-.4-.5 1.4 5.4 17.8 8.9 24.8 15.8 31.2 44.9 51.4 78.5 54.4 11.6 1 24.6.4 31.3-1.4.8-.2 3.1-.6 5-.9 5.4-.8 18.4-5.3 25.3-8.7 24.7-12.3 42.7-32.7 51.1-57.9 3.6-10.9 4.4-17 4.4-31-.1-25.4-7.4-47-22.5-66.5-4.1-5.3-18-22-20.8-25.1-.5-.6-3.5-3.9-6.5-7.3-3-3.5-6.6-7.5-8-9-1.4-1.5-5.2-5.6-8.4-9.2-5.7-6.1-22.8-24.5-34.6-37.2l-5.5-5.9-4.3 5.3z"/><path d="M71.7 61.8c-4.2 5.3-9.8 11.9-12.3 14.7-13.6 14.8-21.3 26.2-24.4 36.4-2.5 8-2.5 12.8 0 22.5 5.6 22 21.6 35.2 43.6 36.1 27.5 1.1 50.7-21.8 50.5-49.8-.2-14.7-2.9-20.2-18-36.2-3.6-3.9-10.4-11.2-15-16.3C84.9 56.9 80.3 52 79.9 52c-.2 0-3.9 4.4-8.2 9.8z"/></svg>