<?xml version="1.0" encoding="utf-8"?>
<!-- Generator: Adobe Illustrator 19.0.0, SVG Export Plug-In . SVG Version: 6.00 Build 0)  -->
<svg version="1.1" id="Layer_1" xmlns="http://www.w3.org/2000/svg" xmlns:xlink="http://www.w3.org/1999/xlink" x="0px" y="0px"
	 viewBox="190 -68.4 976.3 976.3" style="enable-background:new 190 -68.4 976.3 976.3;" xml:space="preserve">
<g>
	<g>
		<path d="M465.6,562.1h589.5L1166.3,116H365.3L334.4-5.2H190v41.9h112.2l128.3,501.8l-23.5,47.1c-12.6,25.8-11.3,55.4,3.9,79.6
			c9.7,15.1,23.5,26.4,39.6,32.9c-11.6,15.5-18.7,34.5-18.7,55.1c0,50.6,40.9,91.5,91.5,91.5c50.6,0,91.5-40.9,91.5-91.5
			c0-18.4-5.5-35.5-14.5-49.6h209.2c-9.3,14.2-14.5,31.3-14.5,49.6c0,50.6,40.9,91.5,91.5,91.5c50.6,0,91.5-40.9,91.5-91.5
			c0-18.4-5.5-35.5-14.5-49.6h67v-41.9H480.1c-13.9,0-26.1-6.8-33.5-18.7c-7.4-11.6-8.1-26.1-1.9-38.7L465.6,562.1z M886.2,703.6
			c27.4,0,49.6,22.2,49.6,49.6s-22.2,49.6-49.6,49.6s-49.6-22.2-49.6-49.6C836.5,725.8,858.8,703.6,886.2,703.6z M523.3,703.6
			c27.4,0,49.6,22.2,49.6,49.6s-22.2,49.6-49.6,49.6c-27.4,0-49.6-22.2-49.6-49.6C473.6,725.8,495.9,703.6,523.3,703.6z
			 M376.3,157.9h736.5l-90.6,362.3H468.8L376.3,157.9z"/>
	</g>
</g>
<path d="M599.8,436.3h-39.7V272.5h-41v-30.4l80.7-7.1V436.3z M670.4,348.8l11.5-111h110.7v31.9h-78.1l-5.5,46.4
	c3.7-2.7,8.4-5,14-6.7c5.6-1.8,11.8-2.7,18.4-2.9c18.4-0.3,32.7,5.4,42.9,17.1c10.1,11.7,15.2,28.1,15.2,49.1
	c0,19.4-5.5,35.4-16.5,47.9c-11,12.5-27.8,18.7-50.4,18.7c-18.3,0-33.9-4.8-46.9-14.5c-13-9.7-19.3-23-18.8-39.9l0.3-0.7l38.3-1.8
	c0,8.3,2.5,14.7,7.5,19.4c5,4.6,11.5,7,19.6,7c9.5,0,16.3-3.1,20.7-9.3c4.3-6.2,6.5-15,6.5-26.4c0-11.5-2.4-20.6-7.1-27.3
	c-4.7-6.8-11.7-10.2-21-10.2c-7.6,0-13.5,1.4-17.5,4.2c-4,2.8-6.9,6.6-8.7,11.5L670.4,348.8z M958.9,364.5
	c0,23.3-6.1,41.5-18.3,54.8c-12.2,13.3-28.4,19.9-48.6,19.9c-20.4,0-36.7-6.6-48.9-19.9c-12.3-13.3-18.4-31.5-18.4-54.8v-54.7
	c0-23.2,6.1-41.4,18.3-54.8c12.2-13.4,28.5-20,48.7-20c20.2,0,36.4,6.7,48.7,20c12.3,13.4,18.5,31.6,18.5,54.8V364.5z M919.2,305.7
	c0-12.7-2.4-22.6-7.3-29.6c-4.9-7-11.6-10.5-20.2-10.5c-8.7,0-15.5,3.5-20.2,10.5c-4.8,7-7.2,16.9-7.2,29.6v62.6
	c0,13,2.4,23,7.2,29.9c4.8,7,11.6,10.4,20.4,10.4c8.6,0,15.3-3.5,20.1-10.4s7.2-16.9,7.2-29.9V305.7z"/>
</svg>
