<?xml version="1.0" encoding="utf-8"?>
<!-- Generator: Adobe Illustrator 19.0.0, SVG Export Plug-In . SVG Version: 6.00 Build 0)  -->
<svg version="1.1" id="_x31_" xmlns="http://www.w3.org/2000/svg" xmlns:xlink="http://www.w3.org/1999/xlink" x="0px" y="0px"
	 viewBox="0 0 510.2 446.2" enable-background="new 0 0 510.2 446.2" xml:space="preserve">
<path fill-rule="evenodd" clip-rule="evenodd" fill="#91C13D" d="M360.4,245.5c-16.7-1.9-28.8-1.4-37.7,1c-6,1.6-5.7,2.1-0.3-1.8
	c47.1-34.8,94.9-54.1,144.2-42.7c10.7,2.5,16,4.5,24.7,11.4c6.6,5.2,12.4,11.8,17.1,21.2c3.3,6.8,1.9,4.4-1.7,0.5
	c-9.4-10.2-19.1-17.5-29.2-20.8c-7.2-2.4-10.5-3.8-3.5,1.8c6.3,5,11.9,11.2,16.4,19.4c3.7,6.8,0.8,2.9-2.6-0.1
	c-11.1-10.1-21.6-17.3-31.4-21.3c-6.8-2.8-11.9-5.7-3.9,0.6c4.8,3.8,10.2,9.8,16.8,19.8c3.5,5.3,4.5,5.9-1,1.7
	c-9.6-7.5-20.8-15.4-31-19.4c-7.2-2.8-9.8-4.2-2.8,1.4c6.2,4.9,13.3,12,18.9,19.7c5.2,7,2.3,3.6-1.8,0.3
	c-10.6-8.5-21.6-13.5-31.4-16.5c-7.8-2.4-8.7-3.2-2.2,2c6.8,5.5,12.6,11.2,17,17c3.8,5,2.5,3.5-1.4,0.9
	c-11.4-7.7-22.4-12.2-32.9-14.4c-10.6-2.2-10.9-2.6-2.6,2.8c5.5,3.6,10.7,8.1,15.6,14.4c3.7,4.8,2.4,3.3-1.7,1.1
	c-11.6-6.5-21.4-9.7-30-10.9c-11.8-1.6-10.5-1.3-1.4,2.3c4.6,1.8,8.4,4,11,6.6c4.8,5-0.4,2.2-3.7,1.2c-10.6-3.2-18.9-4.6-26.2-5.1
	c-5.2-0.3-13.2-1.3-3.5,1c5.3,1.3,9,2.8,11.6,4.6C376.1,249.2,363.9,245.9,360.4,245.5z"/>
<path fill-rule="evenodd" clip-rule="evenodd" fill="#91C13D" d="M232.3,243.2c19.4-1.8,32.7-0.7,43,1.8c7.5,1.9,10.5,4.4,2.3-2.3
	c-46.3-38.2-94.1-60.3-144.8-50.6c-11,2.1-16.5,3.9-25.7,10.8c-6.9,5.2-13.3,11.8-18.4,21.4c-3.7,6.9-2.2,4.5,1.7,0.6
	c10.1-10.2,20.3-17.4,30.8-20.5c7.5-2.2,10.9-3.5,3.5,2c-6.7,4.9-12.7,11.2-17.7,19.6c-4.1,7-1,3,2.6,0c11.9-10,22.9-17.1,33.1-20.8
	c7-2.6,12.4-5.5,4,0.8c-5.1,3.8-10.9,9.8-18,19.9c-3.8,5.4-4.8,6,0.9,1.8c10.2-7.4,21.9-15.2,32.6-18.9c7.5-2.6,10.2-4,2.8,1.6
	c-6.6,4.8-14.1,11.9-20.3,19.8c-5.6,7.1-2.5,3.7,1.9,0.4c11.2-8.5,22.7-13.1,32.9-15.8c8.1-2.2,9-3,2.2,2.2
	c-7.2,5.5-13.4,11.1-18.2,17.1c-4.1,5.1-2.7,3.6,1.4,1c12.1-7.6,23.5-11.8,34.4-13.5c10.9-1.8,11.3-2.3,2.6,3
	c-5.7,3.5-11.3,8-16.6,14.3c-4,4.9-2.6,3.4,1.6,1.2c12.2-6.3,22.3-9.2,31.2-10c12.1-1.1,10.8-0.9,1.3,2.4c-3.2,1.1-6,2.4-8.4,3.9
	c-11.5,7.4-2.2,4.5,3.6,3.1c9.5-2.3,17.2-3.2,24-3.4c5.3-0.1,13.6-0.8,3.5,1.2c-4.2,0.8-7.5,1.9-10,3.1
	C226,243.3,226.2,243.8,232.3,243.2z"/>
<path fill-rule="evenodd" clip-rule="evenodd" fill="#91C13D" d="M248.4,207.8c12,5.5,24.1,12.4,36.1,22.6c6.5,5.5,8.4,9.8,4.8-0.6
	c-11.4-32.7-26.5-58.9-45-79.2c-9.1-10-18.6-18.6-29.8-24.7c-11.9-6.5-26.3-10.7-39.9-8.9c-6.7,0.9-12.8,3-18.6,5.8
	c-11.5,5.6-11.7,5.2-0.3,3.1c10.3-1.9,21.9-2.3,32.8-0.2c14.3,2.9,9.1,2.5-0.6,3.5c-8.5,0.9-16.6,2.8-22.6,6.6
	c-6.3,4-5.2,3.8,0.7,2.7c9.8-1.7,19.7-2.7,30-1.9c18.6,1.4,9,0.8,0,2.8c-5.3,1.2-10,3.2-14.3,5.9c-9.8,6-5.5,4.3,2.2,3.1
	c7.7-1.2,15.4-2,23.5-1.1c15.5,1.6,12,1.4,1.2,3.7c-5.9,1.2-11,3.3-15.2,6.1c-7.9,5.2-4,3.7,2.1,3.1c9-1,17.9-1.2,26.4,0.6
	c12.8,2.7,9.6,2.6,0,3.3c-8.6,0.7-14.1,2.4-17.6,4.7c-5.6,3.6-2.1,2.8,1.9,2.9c9.2,0.1,18.5,0.6,27.9,3c14.3,3.8,11.8,3.2,0.3,3.8
	c-5.6,0.3-10,1.2-13.3,2.6c-7.7,3.3-4.3,3.3,0.8,3.8c8.6,0.8,16.9,2.4,24.7,5.6c8.3,3.4,12,4.6,1.1,3.6c-12.1-1.1-16.3,0.1-16,2.6
	c11.1,2.6,21.6,5.7,30.6,9.8c8.3,3.8,14.4,6.5,1.4,2.4C255.3,206.2,249,205.1,248.4,207.8z"/>
<path fill-rule="evenodd" clip-rule="evenodd" fill="#EF7C04" d="M122.5,5.1c0.8-0.4,1-0.5,1.8-0.9c9.9,6.4,26.3,41.5,11.8,44.4
	c-11.2,2.3-10.2-15.7-9.8-22.7C126.8,17.4,124.5,9.7,122.5,5.1z"/>
<path fill-rule="evenodd" clip-rule="evenodd" fill="#FFD900" d="M167.8,0.4c0.8-0.2,1-0.2,1.8-0.4c7.5,7.7,14.9,42.3,1.4,41.9
	c-10.4-0.3-5.8-16-4.1-22.2C169.1,12.2,168.6,4.9,167.8,0.4z"/>
<path fill-rule="evenodd" clip-rule="evenodd" fill="#FFD900" d="M78.6,23.5c0.7-0.6,0.8-0.8,1.5-1.4c11.3,3.2,37.2,32.1,24.2,39.1
	c-10.1,5.4-14.3-12.1-16-18.9C86.2,34,81.8,27.4,78.6,23.5z"/>
<path fill-rule="evenodd" clip-rule="evenodd" fill="#EF7C04" d="M42.5,53.3c0.5-0.8,0.6-1,1-1.8c11.8-0.2,44.8,20.1,34.3,30.6
	c-8.1,8.1-17.1-7.5-20.7-13.6C52.8,61.2,46.7,56,42.5,53.3z"/>
<path fill-rule="evenodd" clip-rule="evenodd" fill="#FFD900" d="M12.6,90.9c0.2-0.9,0.3-1.1,0.5-2c11.2-3.6,48.8,6.1,41.8,19.1
	c-5.4,10.1-18.6-2.1-23.8-6.9C24.8,95.4,17.4,92.3,12.6,90.9z"/>
<path fill-rule="evenodd" clip-rule="evenodd" fill="#EF7C04" d="M3.5,134.1c0-0.8,0-1-0.1-1.7c8.4-5.5,41.4-6.1,38.6,6.2
	c-2.1,9.5-15.7,2.5-21-0.2C14.5,135,7.8,134.1,3.5,134.1z"/>
<path fill-rule="evenodd" clip-rule="evenodd" fill="#FFD900" d="M1.8,174.2c-0.2-0.6-0.3-0.8-0.5-1.5C7,165.9,35,157,35.8,168.2
	c0.6,8.6-12.8,6.1-18,5.2C11.4,172.2,5.5,173.2,1.8,174.2z"/>
<path fill-rule="evenodd" clip-rule="evenodd" fill="#EF7C04" d="M6.7,207.2c-0.2-0.5-0.3-0.6-0.5-1.1c4.3-5.7,26.2-14,27.3-5.1
	c0.9,6.9-9.9,5.4-14.2,4.9C14.3,205.2,9.5,206.2,6.7,207.2z"/>
<path fill-rule="evenodd" clip-rule="evenodd" fill="#91C13D" d="M290.6,194.3c5.7,8.4,10.3,20.2,14.2,32.7c2.6,8.3,2.1,11.6,4,1.2
	c6-31.6,6-62.8-1.6-85.6c-3.3-10.1-6.6-17.5-11.9-23.9c-10.6-12.7-23-18.1-37.5-20.7c-20-3.5-13-2-0.3,3.3
	c6.3,2.6,12.3,5.8,17.7,9.7c9.8,7.3,5.9,4.5-0.9,2.6c-4.2-1.1-8.4-1.5-12.8-1.2c-0.8,0.1-1.7,0.1-2.5,0.2c-8,0.9-5.7,0.9,0.1,2.7
	c10.6,3.2,19.7,7.3,26.1,12.8c7.3,6.3,2.8,3.9-2.8,2.5c-5.1-1.3-9.4-2-12.9-2.2c-7.6-0.6-10.5-0.7-2.2,2.6
	c7.8,3.1,15.6,6.7,23.1,12.2c4.8,3.5,7.5,4.8,0.4,2.5c-6.7-2.1-12.2-3-16.6-2.8c-6.9,0.2-4.8,0.6-0.4,2.7c7,3.3,13.9,7.2,20.9,12.9
	c8.6,7.1,3.5,3.7-2.8,1.6c-5.6-1.9-10.1-2.8-13.7-2.8c-7.6-0.1-3.6,1,0.2,3.1c8.8,4.8,17.4,10.7,23.9,18.3c5.8,6.7,4.2,5.2-1.6,1.9
	c-4.6-2.6-9.2-4.7-13.3-6c-10-3.2-6.6-1.5-1.2,2.7c5.3,4.1,10.5,9.8,15.1,16.1c6.4,8.6,5.6,7.1-1.4,1.6c-2.8-2.2-5.6-4-8.4-5.3
	C282,185.8,287.9,190.4,290.6,194.3z"/>
<path fill-rule="evenodd" clip-rule="evenodd" fill="#91C13D" d="M358.4,210.5c-12.2,5.2-24.5,11.9-36.9,21.8
	c-6.7,5.4-8.7,9.6-4.8-0.7c12.2-32.5,28-58.4,47-78.2c9.3-9.8,19.1-18.2,30.5-24.1c12.1-6.3,26.7-10.1,40.4-8
	c6.7,1,12.8,3.3,18.6,6.2c11.4,5.9,11.7,5.5,0.2,3.1c-10.3-2.1-22-2.8-33-0.9c-14.4,2.6-9.2,2.3,0.5,3.6c8.6,1.1,16.6,3.2,22.6,7.1
	c6.3,4.1,5.2,3.9-0.8,2.7c-9.8-1.9-19.8-3.1-30.2-2.6c-18.8,1-9.1,0.6-0.1,2.8c5.3,1.3,10,3.4,14.3,6.2c9.7,6.2,5.4,4.4-2.2,3
	c-7.7-1.4-15.5-2.3-23.6-1.6c-15.6,1.3-12.1,1.1-1.3,3.6c5.9,1.4,11,3.5,15.2,6.4c7.9,5.3,3.9,3.8-2.2,3c-9-1.2-17.9-1.6-26.5,0
	c-12.9,2.5-9.7,2.4-0.1,3.3c8.6,0.9,14.1,2.7,17.6,5c5.5,3.7,2,2.9-2,2.8c-9.3-0.1-18.6,0.2-28.2,2.4c-14.5,3.4-11.9,2.9-0.4,3.8
	c5.6,0.4,10.1,1.4,13.4,2.9c7.6,3.4,4.2,3.4-0.9,3.7c-8.6,0.6-17.1,2-25,5.1c-8.4,3.3-12.2,4.3-1.2,3.6c12.2-0.8,16.4,0.5,16.1,2.9
	c-11.2,2.4-21.9,5.2-31,9.1c-8.4,3.6-14.6,6.2-1.4,2.4C351.5,208.8,357.9,207.8,358.4,210.5z"/>
<path fill-rule="evenodd" clip-rule="evenodd" fill="#FFDA00" d="M179.6,49.5c39.1,0,74.4,16.2,99.6,42.3c8.2,8.5,5,5.4-2,1
	C255.3,79,229.3,71,201.5,71c-78.9,0-142.9,64-142.9,142.9c0,19.1,3.7,37.3,10.5,54c4.1,10,3.5,8.5-2.4,0.3
	c-16.1-22.6-25.6-50.3-25.6-80.3C41.1,111.5,103.1,49.5,179.6,49.5z"/>
<path fill-rule="evenodd" clip-rule="evenodd" fill="#FFD900" d="M16.3,236.8c-0.2-0.4-0.3-0.5-0.6-0.9c2.8-5.5,20.4-15.7,22.7-8.3
	c1.7,5.8-7.7,6.1-11.4,6.2C22.5,234,18.6,235.6,16.3,236.8z"/>
<path fill-rule="evenodd" clip-rule="evenodd" fill="#EF7C04" d="M34.4,263.6c-0.2-0.3-0.3-0.3-0.6-0.6c1.3-4.6,13.1-15,15.9-9.7
	c2.2,4.1-4.9,5.7-7.7,6.4C38.7,260.5,36,262.3,34.4,263.6z"/>
<path fill-rule="evenodd" clip-rule="evenodd" fill="#EF7C04" d="M214.3,3c0.8,0,1,0,1.9,0c5.5,9.2,4.5,44.6-8.5,41.1
	c-10.1-2.7-1.9-17,1.3-22.6C212.8,14.8,214,7.6,214.3,3z"/>
<path fill-rule="evenodd" clip-rule="evenodd" fill="#FFD900" d="M253.2,22c0.7,0.1,0.8,0.2,1.5,0.3c3.2,8.4-2.9,37.3-13.1,32.5
	c-7.9-3.7,1-14.2,4.4-18.3C250.2,31.4,252.3,25.7,253.2,22z"/>
<path fill-rule="evenodd" clip-rule="evenodd" fill="#EF7C04" d="M283.6,46.1c0.5,0.3,0.6,0.3,1.1,0.6c0.3,7.2-11.4,27.8-18,21.6
	c-5.1-4.8,4.2-10.6,7.9-12.9C279,52.6,282,48.8,283.6,46.1z"/>
<path fill-rule="evenodd" clip-rule="evenodd" fill="#FFD900" d="M303.3,71.9c0.3,0.3,0.4,0.4,0.7,0.6c-1.1,5.5-13.6,18.8-17.4,12.9
	c-2.9-4.5,5.1-7.2,8.3-8.2C298.6,75.9,301.6,73.6,303.3,71.9z"/>
<path fill-rule="evenodd" clip-rule="evenodd" fill="#3286C7" d="M82.8,303.8c-62-2.1-79.3,51-60.1,98.9c4.1,10.1,11.5,21-3.4,4.9
	c-4.5-4.8-8.2-10.2-11.1-16.2c-7.4-15.1-10-35-6.9-51.5c7.8-41.5,49.5-60.1,85.7-41.2C104.2,307.7,93.3,304.1,82.8,303.8z"/>
<path fill-rule="evenodd" clip-rule="evenodd" fill="#3286C7" d="M125.9,355.4c0.2-2.8-0.1-5.8-0.8-8.6
	c-2.5-10.1-8.6-16.9-17.7-21.4c-4.2-2-8.7-3.5-13.1-4.4c-23.3-4.8-48.2,7.8-56.3,36.7c-6.7,23.7-1.1,47.2,15.8,66.1
	c48.3,54,131.4-3,175.9-31c26.4-16.6,50.5-27.6,72.5-34.9c21.7-7.2,39-9.5,61.5-10.4c6-0.2,12.7-0.4,20.2-0.5
	c19.7-0.3,18.3-0.6-0.6-4.3c-29-5.7-58.6-3.5-88.4,2.3c-32.2,4.4-73.4,25.4-111.7,44.4c-23.2,11.5-38,20-64.5,22.4
	C68.5,416.4,49.2,372,76,344.1c6.7-7,15.8-9.2,24.8-6.6c18,5.2,23.6,19.7,14.1,33.7c-2,2.9-2.3,3.3,0.9,1.9c1.2-0.5,2.8-2,4.2-3.6
	C123.2,365.7,125.6,360.5,125.9,355.4z"/>
<path fill-rule="evenodd" clip-rule="evenodd" fill="#2B465F" d="M467.3,293.4l2.6-7.7c-1.4-0.2-2.8-0.6-3.8-1.6
	c-0.9-1-1.5-2.1-1.9-3.4l-0.1-0.4l4.1-3v1.7c0,0.9,0.2,1.7,0.8,2.4c0.5,0.6,1.2,0.9,1.9,1.1c0.2-0.5,0.4-1,0.6-1.6
	c0.4-1.2,0.9-2.3,1.4-3.4c0.6-1.4,1.4-2.7,2.2-4c0.9-1.4,1.9-2.7,3.1-3.8c1.2-1.2,2.6-2.1,4.1-2.9c1.7-0.8,3.5-1.2,5.3-1.2
	c1.6,0,3,0.4,4.3,1.2c1.5,1,2.1,2.5,2.1,4.2c0,1.9-0.8,3.7-2,5.2c-1.3,1.7-2.9,3.2-4.7,4.5c-1.9,1.4-4,2.5-6.2,3.4
	c-1.9,0.8-3.9,1.4-6,1.8l-5.9,17.8c-0.3,0.9-0.5,1.9-0.8,2.8c-0.2,0.8-0.4,1.7-0.4,2.5c0,0.8,0.3,1.5,0.8,2.1c0.6,0.8,2.1,0.9,3,0.9
	c0.5,0,1.2,0,1.6-0.2c0.2-0.1,0.3-0.2,0.5-0.3c-0.9-0.8-1.6-1.8-2.2-2.9c-0.8-1.7-1-3.8-1-5.7c0-1.8,0.4-3.7,0.8-5.4
	c0.6-2.1,1.4-4.1,2.5-6c1.1-1.9,2.5-3.5,4.3-4.9c1.8-1.4,3.8-2.1,6.1-2.1c1,0,1.9,0.2,2.8,0.6c0.8,0.4,1.5,0.9,2.1,1.6
	c0.6,0.7,1,1.4,1.3,2.3c0.3,0.9,0.4,1.7,0.4,2.6c0,2.3-0.6,4.4-1.5,6.4c-1,2.1-2.2,4.1-3.6,6c-1.3,1.7-2.7,3.3-4.3,4.8
	c-0.8,0.7-1.6,1.5-2.5,2.1c0.1,0,0.1,0,0.2,0.1c0.4,0.1,0.9,0.2,1.3,0.2c2,0,3.9-0.7,5.6-1.7c2-1.2,3.8-2.6,5.4-4.2
	c1.6-1.5,3.2-3.2,4.6-4.9c1-1.3,2.1-2.6,3.1-3.9c0.1-0.2,0.2-0.4,0.4-0.5c0.1-0.1,0.2-0.3,0.3-0.4l2-1.9l-1.4,4.3l-0.1,0.1
	c-0.2,0.3-0.4,0.5-0.5,0.7c-1,1.4-2,2.7-3.1,4c-1.4,1.8-3,3.4-4.6,5c-1.7,1.6-3.6,3.1-5.7,4.3c-2,1.2-4.2,1.8-6.6,1.8
	c-0.8,0-1.6-0.1-2.4-0.4c-0.6-0.2-1.2-0.4-1.8-0.7c-0.9,0.4-1.8,0.8-2.7,1.2c-1.6,0.6-3.3,0.8-5,0.8c-1.6,0-3.2-0.4-4.4-1.5
	c-1-1-1.5-2.2-1.5-3.7c0-1.1,0.2-2.2,0.5-3.2c0.3-1.1,0.6-2.2,1-3.3l1.4-4.4c-0.3,0.4-0.6,0.8-0.9,1.3c-0.8,1.1-1.6,2.1-2.4,3.1
	c-1.1,1.2-2.2,2.4-3.3,3.6c-1.2,1.3-2.6,2.4-4,3.5c-1.4,1-2.9,1.9-4.5,2.6c-1.5,0.7-3.1,1.1-4.7,1.1c-0.7,0-1.5-0.1-2.2-0.3
	c-0.6-0.1-1.1-0.3-1.7-0.5c-0.7,0.3-1.4,0.6-2.1,0.9c-1.4,0.6-2.9,0.8-4.4,0.8c-2,0-3.9-0.6-5.2-2.1c-1.3-1.6-1.7-3.6-1.7-5.6
	c0-1.6,0.3-3.2,0.8-4.8c0.6-1.7,1.3-3.4,2.2-5c1-1.7,2.1-3.3,3.4-4.8c1.3-1.5,2.7-2.9,4.3-4.1c1.5-1.2,3.1-2.1,4.9-2.9
	c1.7-0.7,3.5-1.1,5.3-1.1c2,0,3.9,0.5,5.3,2c1.3,1.4,1.8,3.2,1.8,5.1c0,2.3-0.6,4.6-1.5,6.7c-1,2.1-2.2,4.1-3.6,6
	c-1.3,1.7-2.7,3.3-4.2,4.8c-0.7,0.7-1.5,1.4-2.3,2c0.3,0.1,0.6,0.1,0.9,0.1c1.4,0,2.8-0.3,4.2-0.9c1.5-0.6,2.8-1.4,4.1-2.4
	c1.3-1,2.6-2.1,3.8-3.3c1.1-1.1,2.2-2.3,3.3-3.5c0.9-1,1.8-2.1,2.6-3.2c0.6-0.8,1.1-1.5,1.7-2.3L467.3,293.4L467.3,293.4z
	 M192,291.7c-0.1,0.3-0.3,0.6-0.4,0.9c-1.4,2.9-2.7,5.9-3.9,8.9c-1,2.5-2,5.1-2.8,7.7c-0.5,1.5-1.1,3.1-1.5,4.7l-0.1,0.4l-10.7,1.5
	l7.7-24c0.9-2.7,1.7-5.4,2.4-8.1c0.4-1.7,1-3.8,1.1-5.5c0-0.6-0.1-1.2-0.5-1.7c-0.4-0.4-0.8-0.7-1.3-0.9c-0.7-0.2-1.3-0.3-2-0.4
	c-0.7-0.1-1.5-0.1-2.2-0.1h-1l1-2.8l16.9-1.4l-13.5,41.3h0.2c0.6-1.2,1-2.7,1.4-3.9c0.9-2.7,1.9-5.4,3-8c1.3-3.3,2.7-6.5,4.3-9.7
	c1.6-3.3,3.4-6.5,5.5-9.5c1.9-2.7,4-5.2,6.6-7.2c2.3-1.8,5-2.9,7.9-2.9c1.4,0,2.7,0.4,3.9,1.2l0.5,0.3l-3.5,6.5l-0.6-1.3
	c-0.6-1.5-1.8-2-3.4-2c-2,0-3.7,1-5.1,2.3c-2,1.8-3.7,4-5.2,6.2c-1.2,1.9-2.4,3.8-3.4,5.8h6l0.3,1.6c0.5,1.8,0.9,3.7,1.4,5.5
	c0.5,2.1,1.1,4.1,1.8,6.1c0.6,1.7,1.4,3.4,2.4,4.9c0.6,0.9,1.5,1.8,2.6,1.8c1.3,0,2.7-0.7,3.8-1.3c1.7-1,3.3-2.3,4.8-3.6
	c1.7-1.5,3.4-3.1,5-4.8c1.3-1.4,2.6-2.8,3.8-4.2c0.8-2.1,1.7-4.1,2.8-6c1.4-2.5,3.1-4.9,5-7.1c1.9-2.2,4-4.3,6.3-6.1
	c2.2-1.7,4.7-3.2,7.3-4.2c2.5-1,5.1-1.6,7.8-1.6c2.9,0,5.7,0.7,7.7,2.9c1.9,2.1,2.6,4.7,2.6,7.4c0,3.4-0.8,6.7-2.3,9.9
	c-1.5,3.2-3.2,6.1-5.3,8.9c-1.9,2.5-4,4.9-6.3,7.1c-1.2,1.1-2.6,2.4-3.9,3.5c0.1,0,0.3,0.1,0.4,0.1c0.6,0.1,1.1,0.2,1.7,0.2
	c2.2,0,4.3-0.5,6.3-1.3c2.2-0.9,4.3-2.1,6.2-3.6c2-1.5,3.9-3.1,5.7-4.9c1.3-1.3,2.6-2.7,3.9-4.1c0.8-2.4,1.9-4.8,3.2-7
	c1.4-2.5,3.1-4.9,5-7.1c1.9-2.2,4-4.3,6.3-6.1c2.2-1.7,4.7-3.2,7.3-4.2c2.5-1,5.1-1.6,7.8-1.6c2.9,0,5.7,0.7,7.7,2.9
	c1.9,2.1,2.6,4.7,2.6,7.4c0,3.4-0.8,6.7-2.3,9.9c-1.5,3.2-3.2,6.1-5.3,8.9c-1.9,2.5-4,4.9-6.3,7.1c-3.8,3.6-6.3,5.2-11,7.3
	c-2,0.9-4.2,1.2-6.4,1.2c-2.9,0-5.6-0.8-7.5-3c-1.9-2.3-2.5-5.2-2.5-8.1c0-0.9,0.1-1.7,0.2-2.6c-0.5,0.6-1.1,1.2-1.7,1.7
	c-1.8,1.9-3.8,3.6-5.9,5.2c-2,1.5-4.2,2.8-6.6,3.9c-2.2,1-4.5,1.5-6.9,1.5c-1.1,0-2.1-0.1-3.2-0.4c-0.9-0.2-1.7-0.5-2.6-0.8
	c-1,0.5-2.2,1-3.2,1.5c-2,0.9-4.2,1.2-6.4,1.2c-2.9,0-5.6-0.8-7.5-3c-1.9-2.3-2.5-5.2-2.5-8.1c0-1.1,0.1-2.1,0.3-3.1
	c-0.9,1-1.9,2.1-2.8,3.1c-1.8,1.9-3.6,3.7-5.5,5.4c-1.7,1.5-3.5,2.9-5.4,4.1c-1.4,0.9-3.2,1.7-4.9,1.7c-1.5,0-2.7-0.8-3.7-1.8
	c-1.2-1.2-2.1-2.7-2.9-4.1c-0.9-1.7-1.7-3.6-2.3-5.4c-0.7-1.9-1.3-3.8-1.9-5.7c-0.5-1.6-0.9-3.2-1.3-4.8
	C192.3,293,192.1,292.4,192,291.7L192,291.7z M324.6,288.8c1.5-1.2,3.2-2.2,5-3c1.8-0.8,3.7-1.2,5.6-1.2c1.3,0,2.8,0.1,4,0.5
	c0.8,0.3,1.6,0.5,2.4,0.8l0.7,0.2l-2.6,5.7l-0.7-0.9c-0.3-0.4-0.5-0.7-0.8-1.1c-0.3-0.4-0.7-0.8-1.1-1.1c-0.5-0.4-1-0.7-1.6-0.9
	c-0.7-0.3-1.5-0.3-2.2-0.3c-1.2,0-2.3,0.3-3.3,0.9c-1.2,0.6-2.2,1.5-3.2,2.4c-1,1-1.9,2.2-2.7,3.4c-0.8,1.3-1.5,2.6-2.1,4
	c-0.5,1.3-1,2.6-1.3,4c-0.3,1.1-0.5,2.2-0.5,3.4c0,0.7,0.1,1.3,0.2,2c0.1,0.6,0.3,1.2,0.7,1.7c0.4,0.6,1,0.9,1.6,1.2
	c0.9,0.4,2.1,0.5,3,0.5c2.3,0,4.5-0.6,6.6-1.8c2.2-1.2,4.2-2.7,6-4.3c1.7-1.6,3.4-3.2,4.8-5.1c1.1-1.3,2.1-2.7,3.1-4l2.9-3.7l0,0
	c0.1-0.5,0.2-0.9,0.3-1.4c0.1-0.5,0.2-1.1,0.2-1.7c0-1.2-1.7-1.2-2.5-1.2H345l0.8-2.3l11.6-1l-6.2,19.3c0.2-0.4,0.4-0.8,0.5-1.1
	c1-2.1,2.1-4.2,3.2-6.2c1.2-2,2.5-4,3.9-5.8c1.3-1.6,2.8-3.1,4.5-4.3c1.5-1.1,3.3-1.8,5.2-1.8c1.3,0,2.4,0.4,3.3,1.3
	c0.8,0.8,1.2,1.8,1.2,2.9c0,1.1-0.2,2.2-0.5,3.3c-0.3,1-0.6,2-0.9,3l-3,9.3c0.1-0.2,0.2-0.4,0.3-0.7c1-2.2,2.1-4.3,3.2-6.4
	c1.2-2.1,2.5-4.2,4-6.2c1.3-1.8,2.9-3.4,4.7-4.7c1.6-1.2,3.4-1.9,5.4-1.9c1.3,0,2.6,0.4,3.5,1.4c0.7,0.9,1.1,1.9,1.1,3
	c0,1.1-0.2,2.2-0.5,3.2c-0.3,1-0.6,2-1,3l-2.7,8.2c-0.4,1.3-0.8,2.6-1.1,4c-0.2,0.7-0.4,1.8-0.4,2.5c0,0.2,0.1,0.4,0.2,0.6
	c0.1,0.1,0.3,0.2,0.4,0.2c0.7,0,1.5-0.4,2.1-0.8c1-0.7,2-1.4,2.9-2.3c1.1-1,2.2-2.1,3.2-3.2c1-1.1,2-2.2,3-3.4c0.8-1,1.7-2,2.5-3
	c0.5-0.6,1.1-1.3,1.6-2l2.1-2.9c0,0,0-0.1,0-0.1c0.3-1,0.7-2.5,0.7-3.6c0-0.3,0-0.7-0.3-1c-0.2-0.2-0.5-0.4-0.8-0.5
	c-0.4-0.1-0.9-0.2-1.3-0.3c-0.5,0-1-0.1-1.5-0.1h-1l0.8-2.3l11.8-1L404,308c0.4-0.9,0.8-1.9,1.2-2.8c1.1-2.6,2.3-5.1,3.6-7.5
	c1.2-2.3,2.5-4.5,4-6.5c1.3-1.7,2.7-3.4,4.4-4.7c1.4-1.1,3.1-1.8,4.9-1.8c0.8,0,1.6,0.2,2.3,0.6c0.7,0.4,1.2,0.9,1.6,1.6
	c0.4,0.7,0.7,1.4,0.9,2.2c0.2,0.8,0.3,1.6,0.3,2.4c0,1.7-0.3,3.4-0.7,5c-0.5,1.8-1.2,3.6-2,5.3c-0.9,1.7-1.9,3.4-3,4.9
	c-1.1,1.5-2.3,2.9-3.7,4.2c-1.3,1.2-2.6,2.2-4.2,2.9c-1.4,0.7-2.9,1.1-4.4,1.1c-0.8,0-1.6-0.1-2.3-0.3c-0.6-0.2-1.1-0.4-1.6-0.7
	c-0.4-0.2-0.7-0.5-1-0.8c-0.2,0.6-0.4,1.2-0.6,1.8c-0.5,1.4-0.9,2.8-1.4,4.2c-0.4,1.3-0.9,2.6-1.3,3.9c-0.3,1.1-0.7,2.2-1,3.3
	c-0.2,0.7-0.5,1.4-0.7,2.1l-0.1,0.4l-7.7,1l10.2-31.2c-0.5,0.7-1,1.3-1.5,2c-0.9,1.1-1.8,2.2-2.7,3.3c-1.1,1.3-2.3,2.5-3.4,3.7
	c-1.2,1.2-2.5,2.4-3.8,3.5c-1.2,1-2.5,1.9-3.9,2.7c-1.2,0.6-2.4,1.1-3.8,1.1c-1,0-1.8-0.4-2.4-1.1c-0.6-0.7-0.9-1.5-0.9-2.4
	c0-0.6,0.1-1.2,0.2-1.7c0.1-0.7,0.3-1.5,0.6-2.2c0.2-0.8,0.5-1.6,0.7-2.3c0.2-0.7,0.5-1.5,0.7-2.2l2.9-9c0.2-0.8,0.4-1.6,0.6-2.5
	c0.1-0.5,0.3-1.2,0.3-1.7c0-0.4-0.2-0.8-0.3-1.1c-0.2-0.4-0.5-0.4-0.9-0.4c-1.2,0-2.3,0.7-3.2,1.5c-1.4,1.2-2.5,2.6-3.6,4.1
	c-1.3,1.8-2.4,3.6-3.4,5.6c-1,2-2,3.9-2.9,5.9c-0.8,1.7-1.5,3.4-2.2,5.1c-0.4,1.1-0.9,2.1-1.2,3.2l-0.1,0.4l-7.7,1.2l6.2-19
	c0.4-1.2,0.8-2.5,1.1-3.7c0.2-0.8,0.5-1.8,0.5-2.6c0-0.4-0.1-0.8-0.3-1.2c-0.2-0.4-0.7-0.4-1.1-0.4c-1.3,0-2.4,0.7-3.3,1.6
	c-1.4,1.3-2.6,2.7-3.6,4.3c-1.3,1.8-2.4,3.8-3.4,5.8c-1,2-2,4-2.9,6c-0.7,1.6-1.4,3.3-2.1,5c-0.3,0.9-0.7,1.8-1,2.8l-0.1,0.4
	l-7.6,1.2l5.7-17.6l-0.3,0.3c-0.9,1.2-2,2.6-2.3,3c-0.9,1.2-1.9,2.4-2.9,3.5c-1.2,1.3-2.5,2.6-3.8,3.7c-1.4,1.3-3,2.4-4.6,3.4
	c-1.7,1-3.4,1.9-5.3,2.5c-1.9,0.6-3.8,1-5.8,1c-1.3,0-2.7-0.1-3.9-0.6c-1-0.4-1.9-1-2.7-1.8c-0.7-0.7-1.2-1.6-1.5-2.6
	c-0.8-2.4-0.5-5,0.3-7.3C316.7,297.2,321.2,291.6,324.6,288.8L324.6,288.8z M129.1,259.3c3-2.4,6.3-4.4,9.9-5.9
	c3.6-1.5,7.3-2.2,11.2-2.2c5.8,0,11.5,1.3,15.9,5.4c4.3,4,5.8,9.3,5.8,15c0,5.3-1.1,10.4-3.1,15.3c-2,5.1-4.8,9.9-8.4,14.1
	c-3.5,4.2-7.6,7.7-12.3,10.4c-4.7,2.7-9.8,4.1-15.2,4.1c-4.4,0-8.8-0.9-12.6-3.2c-3.6-2.2-6-5.4-7.4-9.3l-0.1-0.4l8.1-8.5l0,1.6
	c0.1,2.2,0.4,4.5,1,6.7c0.5,1.9,1.3,3.8,2.5,5.4c1,1.5,2.3,2.7,3.9,3.6c1.7,1,3.6,1.3,5.6,1.3c4,0,7.6-1.3,10.9-3.4
	c3.7-2.4,6.8-5.6,9.4-9.2c2.8-4,4.9-8.4,6.5-13c1.6-4.8,2.5-9.8,2.5-14.8c0-2.3-0.3-4.6-0.8-6.8c-0.5-2.1-1.3-4.1-2.5-5.8
	c-1.1-1.6-2.4-3-4-4c-1.6-1-3.5-1.5-5.4-1.5c-3.7,0-7.2,1.1-10.3,3.1c-3.4,2.1-6.3,4.8-8.7,7.9l-0.9,1.2l-1.4-6.6L129.1,259.3
	L129.1,259.3z M155.9,284c-2.2-1.1-4.3-2.2-6.5-3.3c-2.5-1.2-5.1-2.3-7.7-3.3c-2.5-0.9-5.1-1.8-7.7-2.4c-2.4-0.6-4.9-1-7.4-1.2
	l-0.9,0l1.3,6.5l0.7-0.1c1.3-0.3,2.7-0.5,4.1-0.5c1.9,0,3.8,0.2,5.7,0.6c2.1,0.4,4.2,0.9,6.2,1.6c2.1,0.7,4.1,1.5,6.1,2.4
	c1.8,0.8,3.5,1.7,5.2,2.7c-0.7,2.1-1.5,4.1-2.5,6c-1,2-2.2,4-3.5,5.8c-1.2,1.7-2.6,3.4-4.1,4.9c-1.3,1.3-2.7,2.5-4.3,3.6l-0.7,0.5
	l1.6,1.5l0.4-0.2c3.4-1.8,6.2-4.3,8.6-7.3c2.4-3,4.5-6.3,6.1-9.8c1.6-3.3,2.8-6.8,3.7-10.3c0.7-2.8,1.2-5.8,1.2-8.7
	c0-2.1-0.2-4.3-0.8-6.4c-0.5-1.9-1.2-3.7-2.2-5.4c-0.9-1.5-2.1-2.8-3.6-3.9c-1.4-1-3.1-1.7-4.8-1.9l-1-0.1l1.2,5.2l0.4,0.1
	c1.1,0.4,2,1,2.7,1.9c0.8,1.1,1.5,2.3,2,3.6c0.6,1.5,0.9,3,1.2,4.6c0.2,1.6,0.3,3.2,0.3,4.9C157,278.3,156.6,281.2,155.9,284
	L155.9,284z M241.8,278.5c-0.2,0.1-0.3,0.3-0.5,0.4c-2,1.9-3.8,4-5.3,6.3c-1.7,2.6-3.1,5.3-4.1,8.2c-1.1,3-1.7,6.2-1.7,9.4
	c0,2,0.4,4.1,1.6,5.8c1.2,1.8,3.6,2.2,5.6,2.2c0.5,0,1,0,1.5-0.1c0.1,0,0.2,0,0.2,0c-0.4-0.3-0.7-0.7-1-1c-0.7-0.8-1.3-1.6-1.7-2.5
	c-0.6-1.1-1-2.3-1.2-3.5c-0.3-1.5-0.4-3.2-0.4-4.7c0-2.8,0.3-5.6,0.9-8.3c0.6-2.4,1.4-4.7,2.5-6.8
	C239.2,281.9,240.4,280.1,241.8,278.5C241.8,278.5,241.8,278.5,241.8,278.5L241.8,278.5z M243,309.1c1.1-0.9,2.2-2,3.1-3
	c1.7-1.8,3.1-3.8,4.4-5.9c1.5-2.4,2.7-5,3.7-7.7c1-2.8,1.6-5.7,1.6-8.7c0-2.1-0.4-4.1-1.5-6c-0.9-1.6-2.3-2.3-4.2-2.3
	c-1.9,0-3.5,0.8-4.8,2.1c-1.6,1.5-3,3.4-4,5.4c-1.2,2.2-2.1,4.6-2.7,7c-0.6,2.2-1,4.5-1,6.8c0,2.6,0.3,5.7,1.7,8
	C240.3,306.6,241.5,308,243,309.1L243,309.1z M288.1,278.5c-0.2,0.1-0.3,0.3-0.5,0.4c-2,1.9-3.8,4-5.3,6.3c-1.7,2.6-3.1,5.3-4.1,8.2
	c-1.1,3-1.7,6.2-1.7,9.4c0,2,0.4,4.1,1.6,5.8c1.2,1.8,3.6,2.2,5.6,2.2c0.5,0,1,0,1.5-0.1c0.1,0,0.2,0,0.2,0c-0.4-0.3-0.7-0.7-1-1
	c-0.7-0.8-1.3-1.6-1.7-2.5c-0.6-1.1-1-2.3-1.2-3.5c-0.3-1.5-0.4-3.2-0.4-4.7c0-2.8,0.3-5.6,0.9-8.3c0.6-2.4,1.4-4.7,2.5-6.8
	C285.5,281.9,286.7,280.1,288.1,278.5C288.1,278.5,288.1,278.5,288.1,278.5L288.1,278.5z M289.3,309.1c1.1-0.9,2.2-2,3.1-3
	c1.7-1.8,3.1-3.8,4.4-5.9c1.5-2.4,2.7-5,3.7-7.7c1-2.8,1.6-5.7,1.6-8.7c0-2.1-0.4-4.1-1.5-6c-0.9-1.6-2.3-2.3-4.2-2.3
	c-1.9,0-3.5,0.8-4.8,2.1c-1.6,1.5-3,3.4-4,5.4c-1.2,2.2-2.1,4.6-2.7,7c-0.6,2.2-1,4.5-1,6.8c0,2.6,0.3,5.7,1.7,8
	C286.6,306.6,287.7,308,289.3,309.1L289.3,309.1z M405.3,310.1l1.9-1.5l0.2,1.1c0,0.2,0.2,0.5,0.3,0.7c0.1,0.3,0.3,0.6,0.6,0.9
	c0.3,0.3,0.6,0.6,1,0.8c0.4,0.2,0.9,0.3,1.4,0.3c1,0,1.9-0.4,2.7-0.9c1-0.7,1.9-1.7,2.6-2.7c0.9-1.2,1.6-2.5,2.2-3.8
	c0.7-1.4,1.3-2.9,1.7-4.4c0.5-1.4,0.8-2.9,1.1-4.4c0.2-1.2,0.4-2.4,0.4-3.6c0-0.4,0-0.8-0.1-1.3c-0.1-0.4-0.2-0.7-0.3-1.1
	c-0.2-0.3-0.3-0.5-0.6-0.8c-0.2-0.2-0.4-0.2-0.7-0.2c-1.4,0-2.7,0.9-3.7,1.9c-1.5,1.5-2.8,3.2-3.9,4.9c-1.3,2-2.4,4.1-3.5,6.3
	c-0.9,2-1.8,4-2.7,6C405.7,308.9,405.5,309.5,405.3,310.1L405.3,310.1z M351.2,280.4c3.4,0,6.8-0.1,10.2-0.5
	c3.1-0.3,6.1-0.8,9.1-1.5c2.9-0.7,5.8-1.5,8.6-2.6c2.9-1,5.7-2.3,8.4-3.6l0.3-0.1l6.4,2.9l-1.6,0.6c-3.5,1.3-7.1,2.5-10.7,3.4
	c-3.2,0.8-6.4,1.5-9.6,1.9c-3.2,0.5-6.5,0.8-9.8,1.1c-3.7,0.3-7.4,0.5-11.2,0.7l-0.7,0l-0.2-2.3H351.2L351.2,280.4z M439.1,311.4
	c-0.1-0.1-0.3-0.3-0.4-0.4c-0.5-0.5-0.9-1.1-1.2-1.7c-0.4-0.7-0.7-1.6-0.8-2.4c-0.2-1-0.3-2.1-0.3-3.2c0-1.9,0.2-3.8,0.6-5.6
	c0.4-1.6,0.9-3.2,1.7-4.6c0.2-0.3,0.3-0.6,0.5-0.9c-0.6,0.7-1.1,1.4-1.6,2.1c-1.1,1.7-2,3.5-2.7,5.5c-0.7,2-1.1,4.1-1.1,6.2
	c0,1.3,0.3,2.7,1,3.8c0.8,1.1,2.3,1.3,3.6,1.3C438.6,311.4,438.8,311.4,439.1,311.4L439.1,311.4z M442.1,310.2
	c0.7-0.6,1.4-1.3,1.9-1.9c1.1-1.2,2.1-2.5,2.9-3.9c1-1.6,1.8-3.3,2.5-5.1c0.7-1.8,1-3.8,1-5.7c0-1.4-0.3-2.7-0.9-3.9
	c-0.6-1-1.4-1.4-2.6-1.4c-1.2,0-2.2,0.5-3.1,1.3c-1.1,1-2,2.2-2.6,3.6c-0.8,1.5-1.4,3-1.8,4.7c-0.4,1.5-0.6,3-0.6,4.5
	c0,1.7,0.2,3.8,1.1,5.3C440.4,308.6,441.1,309.5,442.1,310.2L442.1,310.2z M476.7,309.9c0.9-0.7,1.8-1.6,2.6-2.5
	c1.1-1.2,2.1-2.6,2.9-4c0.9-1.5,1.6-3.1,2.2-4.8c0.5-1.6,0.8-3.3,0.8-5c0-0.6-0.1-1.3-0.2-1.9c-0.1-0.6-0.3-1.2-0.6-1.7
	c-0.2-0.5-0.6-0.8-1-1.1c-0.5-0.3-1.1-0.4-1.6-0.4c-1,0-1.9,0.5-2.7,1.1c-1.1,0.9-2,1.9-2.7,3.1c-0.9,1.4-1.5,2.9-2,4.4
	c-0.5,1.7-0.8,3.3-0.8,5.1c0,1.6,0.2,3.6,1,5.1C475.2,308.4,475.9,309.2,476.7,309.9L476.7,309.9z M476.3,283
	c1.3-0.1,2.5-0.5,3.7-0.9c1.7-0.6,3.3-1.4,4.7-2.4c1.4-1,2.6-2.2,3.5-3.6c0.9-1.3,1.4-2.8,1.4-4.4c0-1-0.3-1.9-1-2.6
	c-0.7-0.7-1.6-1-2.6-1c-1,0-1.9,0.3-2.6,0.9c-0.9,0.7-1.7,1.6-2.3,2.6c-0.7,1.1-1.4,2.3-1.9,3.5c-0.5,1.2-1,2.5-1.5,3.8
	c-0.4,1.1-0.7,2.1-1.1,3.2C476.6,282.4,476.5,282.7,476.3,283z"/>
</svg>
