<?xml version="1.0" encoding="utf-8"?>
<!-- Generator: Adobe Illustrator 19.0.0, SVG Export Plug-In . SVG Version: 6.00 Build 0)  -->
<svg version="1.1" id="Слой_1" xmlns="http://www.w3.org/2000/svg" xmlns:xlink="http://www.w3.org/1999/xlink" x="0px" y="0px"
	 viewBox="-65 369.9 465 103" enable-background="new -65 369.9 465 103" xml:space="preserve">
<g id="Слой_x0020_1">
	<path fill="#194F94" d="M5.2,461.8h25.3v-17.5l11.7-8.8l17.5,27.3h32.2l-30.2-42.9L89,395.6H53.9L30.5,419v-23.4H5.2l0,0
		c8.8,10.7,13.6,18.5,13.6,32.2S14,453.1,5.2,461.8z"/>
	<path fill="#9AD3F1" d="M-37.7,381.9c2.9-3.9,6.8-7.8,9.7-11.7c9.7,10.7,18.5,19.5,27.3,30.2C7.1,409.2,11,416,12,428.7
		c1,19.5-13.6,37-36.1,39c-19.5,1.9-36.1-9.7-40.9-30.2c5.8,5.8,13.6,9.7,22.4,8.8c15.6-1,26.3-13.6,26.3-29.2
		c0-7.8-2.9-13.6-7.8-19.5c-3.9-4.9-8.8-9.7-12.7-14.6L-37.7,381.9z"/>
	<path fill="#194F94" d="M-63.1,416c1-9.7,9.7-15.6,17.5-26.3c4.9,4.9,8.8,9.7,12.7,13.6s5.8,6.8,5.8,12.7c0,8.8-6.8,17.5-16.6,18.5
		c-10.7,1-19.5-6.8-19.5-19.5V416z"/>
	<path fill="#194F94" d="M90,461.8h13.6l4.9-10.7h22.4l4.9,10.7h14.6L127,410.2h-12.7L90,461.8z M113.4,440.4l6.8-15.6l6.8,15.6
		H113.4z M211.9,428.7c-1-11.7-12.7-20.5-29.2-20.5c-19.5,0-31.2,10.7-31.2,27.3s11.7,27.3,31.2,27.3c17.5,0,28.3-8.8,30.2-21.4
		h-14.6c-1,6.8-6.8,10.7-15.6,10.7c-10.7,0-16.6-5.8-16.6-16.6c0-10.7,6.8-16.6,16.6-16.6c8.8,0,13.6,2.9,15.6,9.7h14.6H211.9z
		 M234.3,410.2h-12.7v51.7h12.7v-17.5l6.8-5.8l18.5,23.4h15.6l-25.3-32.2l22.4-20.5h-16.6l-21.4,19.5v-19.5V410.2z M274.2,461.8
		h13.6l4.9-10.7h22.4l4.9,10.7h14.6l-23.4-51.7h-12.7L274.2,461.8z M297.6,440.4l6.8-15.6l6.8,15.6H297.6z M347.4,410.2v15.6
		c0,11.7-1,21.4-7.8,26.3h-3.9v21.4h12.7v-10.7h40v10.7H401v-21.4h-5.8v-40.9h-47.8V410.2z M381.5,420.9v30.2h-28.3
		c3.9-2.9,6.8-11.7,6.8-25.3v-4.9H381.5z"/>
</g>
</svg>
